<?xml version="1.0" encoding="us-ascii" standalone="no"?><svg xmlns="http://www.w3.org/2000/svg" xmlns:xlink="http://www.w3.org/1999/xlink" contentStyleType="text/css" height="1940px" preserveAspectRatio="none" style="width:1460px;height:1940px;background:#FFFFFF;" version="1.1" viewBox="0 0 1460 1940" width="1460px" zoomAndPan="magnify"><defs/><g><text fill="#000000" font-family="sans-serif" font-size="14" font-weight="bold" lengthAdjust="spacing" textLength="169" x="641.75" y="28.5352">Art player initialization</text><rect fill="#FFFFFF" height="1811.459" style="stroke:#181818;stroke-width:1.0;" width="10" x="34.5" y="83.9766"/><rect fill="#FFFFFF" height="854.0742" style="stroke:#181818;stroke-width:1.0;" width="10" x="285.5" y="561.3242"/><rect fill="#FFFFFF" height="74.6211" style="stroke:#181818;stroke-width:1.0;" width="10" x="285.5" y="1725.1934"/><rect fill="#FFFFFF" height="244.1738" style="stroke:#181818;stroke-width:1.0;" width="10" x="641.5" y="156.5977"/><rect fill="#FFFFFF" height="401.3818" style="stroke:#181818;stroke-width:1.0;" width="10" x="641.5" y="658.2559"/><rect fill="#FFFFFF" height="74.6211" style="stroke:#181818;stroke-width:1.0;" width="10" x="641.5" y="1268.1563"/><rect fill="#FFFFFF" height="320.7949" style="stroke:#181818;stroke-width:1.0;" width="10" x="641.5" y="1574.6406"/><rect fill="#FFFFFF" height="167.5527" style="stroke:#181818;stroke-width:1.0;" width="10" x="916.5" y="233.2188"/><rect fill="#FFFFFF" height="79.9316" style="stroke:#181818;stroke-width:1.0;" width="10" x="916.5" y="855.1191"/><rect fill="#FFFFFF" height="79.6211" style="stroke:#181818;stroke-width:1.0;" width="10" x="916.5" y="1495.0195"/><rect fill="#FFFFFF" height="85.2764" style="stroke:#181818;stroke-width:1.0;" width="10" x="1160.5" y="443.7373"/><rect fill="none" height="266.4844" style="stroke:#000000;stroke-width:1.5;" width="1351.5" x="83" y="1621.9512"/><line style="stroke:#181818;stroke-width:0.5;stroke-dasharray:5.0,5.0;" x1="39" x2="39" y1="73.9766" y2="1905.4355"/><line style="stroke:#181818;stroke-width:0.5;stroke-dasharray:5.0,5.0;" x1="290" x2="290" y1="73.9766" y2="1905.4355"/><line style="stroke:#181818;stroke-width:0.5;stroke-dasharray:5.0,5.0;" x1="646.5" x2="646.5" y1="73.9766" y2="1905.4355"/><line style="stroke:#181818;stroke-width:0.5;stroke-dasharray:5.0,5.0;" x1="921" x2="921" y1="73.9766" y2="1905.4355"/><line style="stroke:#181818;stroke-width:0.5;stroke-dasharray:5.0,5.0;" x1="1165" x2="1165" y1="73.9766" y2="1905.4355"/><rect fill="#E2E2F0" height="30.4883" rx="2.5" ry="2.5" style="stroke:#181818;stroke-width:0.5;" width="69" x="5" y="42.4883"/><text fill="#000000" font-family="sans-serif" font-size="14" lengthAdjust="spacing" textLength="55" x="12" y="63.0234">Browser</text><rect fill="#E2E2F0" height="30.4883" rx="2.5" ry="2.5" style="stroke:#181818;stroke-width:0.5;" width="69" x="5" y="1904.4355"/><text fill="#000000" font-family="sans-serif" font-size="14" lengthAdjust="spacing" textLength="55" x="12" y="1924.9707">Browser</text><rect fill="#E2E2F0" height="30.4883" rx="2.5" ry="2.5" style="stroke:#181818;stroke-width:0.5;" width="69" x="256" y="42.4883"/><text fill="#000000" font-family="sans-serif" font-size="14" lengthAdjust="spacing" textLength="55" x="263" y="63.0234">Artwork</text><rect fill="#E2E2F0" height="30.4883" rx="2.5" ry="2.5" style="stroke:#181818;stroke-width:0.5;" width="69" x="256" y="1904.4355"/><text fill="#000000" font-family="sans-serif" font-size="14" lengthAdjust="spacing" textLength="55" x="263" y="1924.9707">Artwork</text><rect fill="#E2E2F0" height="30.4883" rx="2.5" ry="2.5" style="stroke:#181818;stroke-width:0.5;" width="36" x="628.5" y="42.4883"/><text fill="#000000" font-family="sans-serif" font-size="14" lengthAdjust="spacing" textLength="22" x="635.5" y="63.0234">API</text><rect fill="#E2E2F0" height="30.4883" rx="2.5" ry="2.5" style="stroke:#181818;stroke-width:0.5;" width="36" x="628.5" y="1904.4355"/><text fill="#000000" font-family="sans-serif" font-size="14" lengthAdjust="spacing" textLength="22" x="635.5" y="1924.9707">API</text><rect fill="#E2E2F0" height="30.4883" rx="2.5" ry="2.5" style="stroke:#181818;stroke-width:0.5;" width="127" x="858" y="42.4883"/><text fill="#000000" font-family="sans-serif" font-size="14" lengthAdjust="spacing" textLength="113" x="865" y="63.0234">PlatformAdapter</text><rect fill="#E2E2F0" height="30.4883" rx="2.5" ry="2.5" style="stroke:#181818;stroke-width:0.5;" width="127" x="858" y="1904.4355"/><text fill="#000000" font-family="sans-serif" font-size="14" lengthAdjust="spacing" textLength="113" x="865" y="1924.9707">PlatformAdapter</text><rect fill="#E2E2F0" height="30.4883" rx="2.5" ry="2.5" style="stroke:#181818;stroke-width:0.5;" width="105" x="1113" y="42.4883"/><text fill="#000000" font-family="sans-serif" font-size="14" lengthAdjust="spacing" textLength="91" x="1120" y="63.0234">TimeProvider</text><rect fill="#E2E2F0" height="30.4883" rx="2.5" ry="2.5" style="stroke:#181818;stroke-width:0.5;" width="105" x="1113" y="1904.4355"/><text fill="#000000" font-family="sans-serif" font-size="14" lengthAdjust="spacing" textLength="91" x="1120" y="1924.9707">TimeProvider</text><rect fill="#FFFFFF" height="1811.459" style="stroke:#181818;stroke-width:1.0;" width="10" x="34.5" y="83.9766"/><rect fill="#FFFFFF" height="854.0742" style="stroke:#181818;stroke-width:1.0;" width="10" x="285.5" y="561.3242"/><rect fill="#FFFFFF" height="74.6211" style="stroke:#181818;stroke-width:1.0;" width="10" x="285.5" y="1725.1934"/><rect fill="#FFFFFF" height="244.1738" style="stroke:#181818;stroke-width:1.0;" width="10" x="641.5" y="156.5977"/><rect fill="#FFFFFF" height="401.3818" style="stroke:#181818;stroke-width:1.0;" width="10" x="641.5" y="658.2559"/><rect fill="#FFFFFF" height="74.6211" style="stroke:#181818;stroke-width:1.0;" width="10" x="641.5" y="1268.1563"/><rect fill="#FFFFFF" height="320.7949" style="stroke:#181818;stroke-width:1.0;" width="10" x="641.5" y="1574.6406"/><rect fill="#FFFFFF" height="167.5527" style="stroke:#181818;stroke-width:1.0;" width="10" x="916.5" y="233.2188"/><rect fill="#FFFFFF" height="79.9316" style="stroke:#181818;stroke-width:1.0;" width="10" x="916.5" y="855.1191"/><rect fill="#FFFFFF" height="79.6211" style="stroke:#181818;stroke-width:1.0;" width="10" x="916.5" y="1495.0195"/><rect fill="#FFFFFF" height="85.2764" style="stroke:#181818;stroke-width:1.0;" width="10" x="1160.5" y="443.7373"/><rect fill="#EEEEEE" height="3" style="stroke:#EEEEEE;stroke-width:1.0;" width="1453.5" x="0" y="104.6318"/><line style="stroke:#000000;stroke-width:1.0;" x1="0" x2="1453.5" y1="104.6318" y2="104.6318"/><line style="stroke:#000000;stroke-width:1.0;" x1="0" x2="1453.5" y1="107.6318" y2="107.6318"/><rect fill="#EEEEEE" height="23.3105" style="stroke:#000000;stroke-width:2.0;" width="67" x="693.25" y="93.9766"/><text fill="#000000" font-family="sans-serif" font-size="13" font-weight="bold" lengthAdjust="spacing" textLength="49" x="699.25" y="110.5449">Startup</text><line style="stroke:#181818;stroke-width:1.0;" x1="44.5" x2="91.5" y1="143.5977" y2="143.5977"/><line style="stroke:#181818;stroke-width:1.0;" x1="91.5" x2="91.5" y1="143.5977" y2="156.5977"/><line style="stroke:#181818;stroke-width:1.0;" x1="50.5" x2="91.5" y1="156.5977" y2="156.5977"/><polygon fill="#181818" points="60.5,152.5977,50.5,156.5977,60.5,160.5977,56.5,156.5977" style="stroke:#181818;stroke-width:1.0;"/><text fill="#000000" font-family="sans-serif" font-size="13" font-weight="bold" lengthAdjust="spacing" textLength="21" x="56.5" y="138.8555">1.1</text><text fill="#000000" font-family="sans-serif" font-size="13" lengthAdjust="spacing" textLength="202" x="81.5" y="138.8555">Load HTML w/ GenArt API script</text><line style="stroke:#181818;stroke-width:1.0;" x1="651.5" x2="693.5" y1="190.9082" y2="190.9082"/><line style="stroke:#181818;stroke-width:1.0;" x1="693.5" x2="693.5" y1="190.9082" y2="203.9082"/><line style="stroke:#181818;stroke-width:1.0;" x1="652.5" x2="693.5" y1="203.9082" y2="203.9082"/><polygon fill="#181818" points="662.5,199.9082,652.5,203.9082,662.5,207.9082,658.5,203.9082" style="stroke:#181818;stroke-width:1.0;"/><text fill="#000000" font-family="sans-serif" font-size="13" font-weight="bold" lengthAdjust="spacing" textLength="21" x="658.5" y="186.166">1.2</text><text fill="#000000" font-family="sans-serif" font-size="13" lengthAdjust="spacing" textLength="54" x="683.5" y="186.166">Initialize</text><polygon fill="#181818" points="904.5,229.2188,914.5,233.2188,904.5,237.2188,908.5,233.2188" style="stroke:#181818;stroke-width:1.0;"/><line style="stroke:#181818;stroke-width:1.0;" x1="44.5" x2="910.5" y1="233.2188" y2="233.2188"/><text fill="#000000" font-family="sans-serif" font-size="13" font-weight="bold" lengthAdjust="spacing" textLength="21" x="51.5" y="228.4766">1.3</text><text fill="#000000" font-family="sans-serif" font-size="13" lengthAdjust="spacing" textLength="139" x="76.5" y="228.4766">Load platform adapter</text><line style="stroke:#181818;stroke-width:1.0;" x1="926.5" x2="968.5" y1="262.5293" y2="262.5293"/><line style="stroke:#181818;stroke-width:1.0;" x1="968.5" x2="968.5" y1="262.5293" y2="275.5293"/><line style="stroke:#181818;stroke-width:1.0;" x1="927.5" x2="968.5" y1="275.5293" y2="275.5293"/><polygon fill="#181818" points="937.5,271.5293,927.5,275.5293,937.5,279.5293,933.5,275.5293" style="stroke:#181818;stroke-width:1.0;"/><text fill="#000000" font-family="sans-serif" font-size="13" font-weight="bold" lengthAdjust="spacing" textLength="21" x="933.5" y="257.7871">1.4</text><text fill="#000000" font-family="sans-serif" font-size="13" lengthAdjust="spacing" textLength="118" x="958.5" y="257.7871">Initialize (optional)</text><line style="stroke:#181818;stroke-width:1.0;" x1="926.5" x2="968.5" y1="308.9951" y2="308.9951"/><line style="stroke:#181818;stroke-width:1.0;" x1="968.5" x2="968.5" y1="308.9951" y2="321.9951"/><line style="stroke:#181818;stroke-width:1.0;" x1="927.5" x2="968.5" y1="321.9951" y2="321.9951"/><polygon fill="#181818" points="937.5,317.9951,927.5,321.9951,937.5,325.9951,933.5,321.9951" style="stroke:#181818;stroke-width:1.0;"/><text fill="#000000" font-family="sans-serif" font-size="13" font-weight="bold" lengthAdjust="spacing" textLength="21" x="933.5" y="304.2529">1.5</text><text fill="#000000" font-family="sans-serif" font-size="13" lengthAdjust="spacing" textLength="92" x="958.5" y="304.2529">Initialize PRNG</text><path d="M752,288.5293 L752,328.5293 L911,328.5293 L911,298.5293 L901,288.5293 L752,288.5293 " fill="#FEFFDD" style="stroke:#181818;stroke-width:0.5;"/><path d="M901,288.5293 L901,298.5293 L911,298.5293 L901,288.5293 " fill="#FEFFDD" style="stroke:#181818;stroke-width:0.5;"/><text fill="#000000" font-family="sans-serif" font-size="13" lengthAdjust="spacing" textLength="138" x="758" y="306.0977">Seeding MUST happen</text><text fill="#000000" font-family="sans-serif" font-size="13" lengthAdjust="spacing" textLength="132" x="758" y="321.4082">before artwork starts</text><line style="stroke:#181818;stroke-width:1.0;" x1="926.5" x2="968.5" y1="355.4609" y2="355.4609"/><line style="stroke:#181818;stroke-width:1.0;" x1="968.5" x2="968.5" y1="355.4609" y2="368.4609"/><line style="stroke:#181818;stroke-width:1.0;" x1="927.5" x2="968.5" y1="368.4609" y2="368.4609"/><polygon fill="#181818" points="937.5,364.4609,927.5,368.4609,937.5,372.4609,933.5,368.4609" style="stroke:#181818;stroke-width:1.0;"/><text fill="#000000" font-family="sans-serif" font-size="13" font-weight="bold" lengthAdjust="spacing" textLength="21" x="933.5" y="350.7188">1.6</text><text fill="#000000" font-family="sans-serif" font-size="13" lengthAdjust="spacing" textLength="124" x="958.5" y="350.7188">Set execution mode</text><path d="M764,342.6504 L764,367.6504 L911,367.6504 L911,352.6504 L901,342.6504 L764,342.6504 " fill="#FEFFDD" style="stroke:#181818;stroke-width:0.5;"/><path d="M901,342.6504 L901,352.6504 L911,352.6504 L901,342.6504 " fill="#FEFFDD" style="stroke:#181818;stroke-width:0.5;"/><text fill="#000000" font-family="sans-serif" font-size="13" lengthAdjust="spacing" textLength="126" x="770" y="360.2188">Play / Preview / Edit</text><polygon fill="#181818" points="657.5,396.7715,647.5,400.7715,657.5,404.7715,653.5,400.7715" style="stroke:#181818;stroke-width:1.0;"/><line style="stroke:#181818;stroke-width:1.0;" x1="651.5" x2="920.5" y1="400.7715" y2="400.7715"/><text fill="#000000" font-family="sans-serif" font-size="13" font-weight="bold" lengthAdjust="spacing" textLength="21" x="663.5" y="396.0293">1.7</text><text fill="#000000" font-family="sans-serif" font-size="13" lengthAdjust="spacing" textLength="51" x="688.5" y="396.0293">Register</text><path d="M931,381.4609 L931,406.4609 L1096,406.4609 L1096,391.4609 L1086,381.4609 L931,381.4609 " fill="#FEFFDD" style="stroke:#181818;stroke-width:0.5;"/><path d="M1086,381.4609 L1086,391.4609 L1096,391.4609 L1086,381.4609 " fill="#FEFFDD" style="stroke:#181818;stroke-width:0.5;"/><text fill="#000000" font-family="sans-serif" font-size="13" lengthAdjust="spacing" textLength="144" x="937" y="399.0293">`$genart.setAdapter()`</text><polygon fill="#181818" points="1148.5,439.7373,1158.5,443.7373,1148.5,447.7373,1152.5,443.7373" style="stroke:#181818;stroke-width:1.0;"/><line style="stroke:#181818;stroke-width:1.0;stroke-dasharray:2.0,2.0;" x1="44.5" x2="1154.5" y1="443.7373" y2="443.7373"/><text fill="#000000" font-family="sans-serif" font-size="13" font-weight="bold" lengthAdjust="spacing" textLength="21" x="51.5" y="438.9951">1.8</text><text fill="#000000" font-family="sans-serif" font-size="13" lengthAdjust="spacing" textLength="182" x="76.5" y="438.9951">Load custom timing provider</text><path d="M1175,416.7715 L1175,456.7715 L1453,456.7715 L1453,426.7715 L1443,416.7715 L1175,416.7715 " fill="#FEFFDD" style="stroke:#181818;stroke-width:0.5;"/><path d="M1443,416.7715 L1443,426.7715 L1453,426.7715 L1443,416.7715 " fill="#FEFFDD" style="stroke:#181818;stroke-width:0.5;"/><text fill="#000000" font-family="sans-serif" font-size="13" lengthAdjust="spacing" textLength="257" x="1181" y="434.3398">optional, API uses `timingProviderRAF()`</text><text fill="#000000" font-family="sans-serif" font-size="13" lengthAdjust="spacing" textLength="63" x="1181" y="449.6504">by default</text><line style="stroke:#181818;stroke-width:1.0;stroke-dasharray:2.0,2.0;" x1="1170.5" x2="1212.5" y1="483.7031" y2="483.7031"/><line style="stroke:#181818;stroke-width:1.0;stroke-dasharray:2.0,2.0;" x1="1212.5" x2="1212.5" y1="483.7031" y2="496.7031"/><line style="stroke:#181818;stroke-width:1.0;stroke-dasharray:2.0,2.0;" x1="1171.5" x2="1212.5" y1="496.7031" y2="496.7031"/><polygon fill="#181818" points="1181.5,492.7031,1171.5,496.7031,1181.5,500.7031,1177.5,496.7031" style="stroke:#181818;stroke-width:1.0;"/><text fill="#000000" font-family="sans-serif" font-size="13" font-weight="bold" lengthAdjust="spacing" textLength="21" x="1177.5" y="478.9609">1.9</text><text fill="#000000" font-family="sans-serif" font-size="13" lengthAdjust="spacing" textLength="118" x="1202.5" y="478.9609">Initialize (optional)</text><polygon fill="#181818" points="657.5,525.0137,647.5,529.0137,657.5,533.0137,653.5,529.0137" style="stroke:#181818;stroke-width:1.0;"/><line style="stroke:#181818;stroke-width:1.0;" x1="651.5" x2="1164.5" y1="529.0137" y2="529.0137"/><text fill="#000000" font-family="sans-serif" font-size="13" font-weight="bold" lengthAdjust="spacing" textLength="30" x="663.5" y="524.2715">1.10</text><text fill="#000000" font-family="sans-serif" font-size="13" lengthAdjust="spacing" textLength="51" x="697.5" y="524.2715">Register</text><path d="M1175,509.7031 L1175,534.7031 L1322,534.7031 L1322,519.7031 L1312,509.7031 L1175,509.7031 " fill="#FEFFDD" style="stroke:#181818;stroke-width:0.5;"/><path d="M1312,509.7031 L1312,519.7031 L1322,519.7031 L1312,509.7031 " fill="#FEFFDD" style="stroke:#181818;stroke-width:0.5;"/><text fill="#000000" font-family="sans-serif" font-size="13" lengthAdjust="spacing" textLength="126" x="1181" y="527.2715">`$genart.setTime()`</text><polygon fill="#181818" points="273.5,557.3242,283.5,561.3242,273.5,565.3242,277.5,561.3242" style="stroke:#181818;stroke-width:1.0;"/><line style="stroke:#181818;stroke-width:1.0;" x1="44.5" x2="279.5" y1="561.3242" y2="561.3242"/><text fill="#000000" font-family="sans-serif" font-size="13" font-weight="bold" lengthAdjust="spacing" textLength="30" x="51.5" y="556.582">1.11</text><text fill="#000000" font-family="sans-serif" font-size="13" lengthAdjust="spacing" textLength="122" x="85.5" y="556.582">Load artwork script</text><polygon fill="#181818" points="634.5,589.6348,644.5,593.6348,634.5,597.6348,638.5,593.6348" style="stroke:#181818;stroke-width:1.0;"/><line style="stroke:#181818;stroke-width:1.0;" x1="295.5" x2="640.5" y1="593.6348" y2="593.6348"/><text fill="#000000" font-family="sans-serif" font-size="13" font-weight="bold" lengthAdjust="spacing" textLength="30" x="302.5" y="588.8926">1.12</text><text fill="#000000" font-family="sans-serif" font-size="13" lengthAdjust="spacing" textLength="177" x="336.5" y="588.8926">Wait for adapter registration</text><path d="M51,574.3242 L51,599.3242 L280,599.3242 L280,584.3242 L270,574.3242 L51,574.3242 " fill="#FEFFDD" style="stroke:#181818;stroke-width:0.5;"/><path d="M270,574.3242 L270,584.3242 L280,584.3242 L270,574.3242 " fill="#FEFFDD" style="stroke:#181818;stroke-width:0.5;"/><text fill="#000000" font-family="sans-serif" font-size="13" lengthAdjust="spacing" textLength="208" x="57" y="591.8926">`await $genart.waitForAdapter()`</text><polygon fill="#181818" points="306.5,621.9453,296.5,625.9453,306.5,629.9453,302.5,625.9453" style="stroke:#181818;stroke-width:1.0;"/><line style="stroke:#181818;stroke-width:1.0;stroke-dasharray:2.0,2.0;" x1="300.5" x2="645.5" y1="625.9453" y2="625.9453"/><text fill="#000000" font-family="sans-serif" font-size="13" font-weight="bold" lengthAdjust="spacing" textLength="30" x="312.5" y="621.2031">1.13</text><text fill="#000000" font-family="sans-serif" font-size="13" lengthAdjust="spacing" textLength="200" x="346.5" y="621.2031">Return when adapter available...</text><polygon fill="#181818" points="629.5,654.2559,639.5,658.2559,629.5,662.2559,633.5,658.2559" style="stroke:#181818;stroke-width:1.0;"/><line style="stroke:#181818;stroke-width:1.0;" x1="295.5" x2="635.5" y1="658.2559" y2="658.2559"/><text fill="#000000" font-family="sans-serif" font-size="13" font-weight="bold" lengthAdjust="spacing" textLength="30" x="302.5" y="653.5137">1.14</text><text fill="#000000" font-family="sans-serif" font-size="13" lengthAdjust="spacing" textLength="195" x="336.5" y="653.5137">Declare &amp; register param specs</text><path d="M99,638.9453 L99,663.9453 L280,663.9453 L280,648.9453 L270,638.9453 L99,638.9453 " fill="#FEFFDD" style="stroke:#181818;stroke-width:0.5;"/><path d="M270,638.9453 L270,648.9453 L280,648.9453 L270,638.9453 " fill="#FEFFDD" style="stroke:#181818;stroke-width:0.5;"/><text fill="#000000" font-family="sans-serif" font-size="13" lengthAdjust="spacing" textLength="160" x="105" y="656.5137">`$genart.setParams({...})`</text><polygon fill="#181818" points="909.5,697.2217,919.5,701.2217,909.5,705.2217,913.5,701.2217" style="stroke:#181818;stroke-width:1.0;"/><line style="stroke:#181818;stroke-width:1.0;" x1="651.5" x2="915.5" y1="701.2217" y2="701.2217"/><text fill="#000000" font-family="sans-serif" font-size="13" font-weight="bold" lengthAdjust="spacing" textLength="30" x="658.5" y="696.4795">1.15</text><text fill="#000000" font-family="sans-serif" font-size="13" lengthAdjust="spacing" textLength="111" x="692.5" y="696.4795">Pass param specs</text><path d="M926,674.2559 L926,714.2559 L1187,714.2559 L1187,684.2559 L1177,674.2559 L926,674.2559 " fill="#FEFFDD" style="stroke:#181818;stroke-width:0.5;"/><path d="M1177,674.2559 L1177,684.2559 L1187,684.2559 L1177,674.2559 " fill="#FEFFDD" style="stroke:#181818;stroke-width:0.5;"/><text fill="#000000" font-family="sans-serif" font-size="13" lengthAdjust="spacing" textLength="202" x="932" y="691.8242">Pre-initialize param loading and</text><text fill="#000000" font-family="sans-serif" font-size="13" lengthAdjust="spacing" textLength="240" x="932" y="707.1348">allow adapter to inject its own params</text><polygon fill="#181818" points="662.5,737.1875,652.5,741.1875,662.5,745.1875,658.5,741.1875" style="stroke:#181818;stroke-width:1.0;"/><line style="stroke:#181818;stroke-width:1.0;stroke-dasharray:2.0,2.0;" x1="656.5" x2="920.5" y1="741.1875" y2="741.1875"/><text fill="#000000" font-family="sans-serif" font-size="13" font-weight="bold" lengthAdjust="spacing" textLength="30" x="668.5" y="736.4453">1.16</text><text fill="#000000" font-family="sans-serif" font-size="13" lengthAdjust="spacing" textLength="136" x="702.5" y="736.4453">Return updated specs</text><line style="stroke:#181818;stroke-width:1.0;" x1="651.5" x2="693.5" y1="770.498" y2="770.498"/><line style="stroke:#181818;stroke-width:1.0;" x1="693.5" x2="693.5" y1="770.498" y2="783.498"/><line style="stroke:#181818;stroke-width:1.0;" x1="652.5" x2="693.5" y1="783.498" y2="783.498"/><polygon fill="#181818" points="662.5,779.498,652.5,783.498,662.5,787.498,658.5,783.498" style="stroke:#181818;stroke-width:1.0;"/><text fill="#000000" font-family="sans-serif" font-size="13" font-weight="bold" lengthAdjust="spacing" textLength="30" x="658.5" y="765.7559">1.17</text><text fill="#000000" font-family="sans-serif" font-size="13" lengthAdjust="spacing" textLength="140" x="692.5" y="765.7559">Validate params specs</text><path d="M844,757.6875 L844,782.6875 L1022,782.6875 L1022,767.6875 L1012,757.6875 L844,757.6875 " fill="#FEFFDD" style="stroke:#181818;stroke-width:0.5;"/><path d="M1012,757.6875 L1012,767.6875 L1022,767.6875 L1012,757.6875 " fill="#FEFFDD" style="stroke:#181818;stroke-width:0.5;"/><text fill="#000000" font-family="sans-serif" font-size="13" lengthAdjust="spacing" textLength="157" x="850" y="775.2559">Ensure valid param types</text><line style="stroke:#181818;stroke-width:1.0;" x1="651.5" x2="693.5" y1="812.8086" y2="812.8086"/><line style="stroke:#181818;stroke-width:1.0;" x1="693.5" x2="693.5" y1="812.8086" y2="825.8086"/><line style="stroke:#181818;stroke-width:1.0;" x1="652.5" x2="693.5" y1="825.8086" y2="825.8086"/><polygon fill="#181818" points="662.5,821.8086,652.5,825.8086,662.5,829.8086,658.5,825.8086" style="stroke:#181818;stroke-width:1.0;"/><text fill="#000000" font-family="sans-serif" font-size="13" font-weight="bold" lengthAdjust="spacing" textLength="30" x="658.5" y="808.0664">1.18</text><text fill="#000000" font-family="sans-serif" font-size="13" lengthAdjust="spacing" textLength="171" x="692.5" y="808.0664">Add missing default values</text><path d="M875,799.998 L875,824.998 L1074,824.998 L1074,809.998 L1064,799.998 L875,799.998 " fill="#FEFFDD" style="stroke:#181818;stroke-width:0.5;"/><path d="M1064,799.998 L1064,809.998 L1074,809.998 L1064,799.998 " fill="#FEFFDD" style="stroke:#181818;stroke-width:0.5;"/><text fill="#000000" font-family="sans-serif" font-size="13" lengthAdjust="spacing" textLength="178" x="881" y="817.5664">Randomize missing defaults</text><polygon fill="#181818" points="904.5,851.1191,914.5,855.1191,904.5,859.1191,908.5,855.1191" style="stroke:#181818;stroke-width:1.0;"/><line style="stroke:#181818;stroke-width:1.0;" x1="651.5" x2="910.5" y1="855.1191" y2="855.1191"/><text fill="#000000" font-family="sans-serif" font-size="13" font-weight="bold" lengthAdjust="spacing" textLength="30" x="658.5" y="850.377">1.19</text><text fill="#000000" font-family="sans-serif" font-size="13" lengthAdjust="spacing" textLength="156" x="692.5" y="850.377">Update/augment params</text><line style="stroke:#181818;stroke-width:1.0;" x1="926.5" x2="968.5" y1="888.585" y2="888.585"/><line style="stroke:#181818;stroke-width:1.0;" x1="968.5" x2="968.5" y1="888.585" y2="901.585"/><line style="stroke:#181818;stroke-width:1.0;" x1="927.5" x2="968.5" y1="901.585" y2="901.585"/><polygon fill="#181818" points="937.5,897.585,927.5,901.585,937.5,905.585,933.5,901.585" style="stroke:#181818;stroke-width:1.0;"/><text fill="#000000" font-family="sans-serif" font-size="13" font-weight="bold" lengthAdjust="spacing" textLength="30" x="933.5" y="883.8428">1.20</text><text fill="#000000" font-family="sans-serif" font-size="13" lengthAdjust="spacing" textLength="124" x="967.5" y="883.8428">Load &amp; parse param</text><path d="M1103,868.1191 L1103,908.1191 L1280,908.1191 L1280,878.1191 L1270,868.1191 L1103,868.1191 " fill="#FEFFDD" style="stroke:#181818;stroke-width:0.5;"/><path d="M1270,868.1191 L1270,878.1191 L1280,878.1191 L1270,868.1191 " fill="#FEFFDD" style="stroke:#181818;stroke-width:0.5;"/><text fill="#000000" font-family="sans-serif" font-size="13" lengthAdjust="spacing" textLength="151" x="1109" y="885.6875">source param values via</text><text fill="#000000" font-family="sans-serif" font-size="13" lengthAdjust="spacing" textLength="156" x="1109" y="900.998">platform-specific means</text><polygon fill="#181818" points="662.5,931.0508,652.5,935.0508,662.5,939.0508,658.5,935.0508" style="stroke:#181818;stroke-width:1.0;"/><line style="stroke:#181818;stroke-width:1.0;stroke-dasharray:2.0,2.0;" x1="656.5" x2="920.5" y1="935.0508" y2="935.0508"/><text fill="#000000" font-family="sans-serif" font-size="13" font-weight="bold" lengthAdjust="spacing" textLength="30" x="668.5" y="930.3086">1.21</text><text fill="#000000" font-family="sans-serif" font-size="13" lengthAdjust="spacing" textLength="170" x="702.5" y="930.3086">Customized param value(s)</text><line style="stroke:#181818;stroke-width:1.0;" x1="651.5" x2="693.5" y1="964.3613" y2="964.3613"/><line style="stroke:#181818;stroke-width:1.0;" x1="693.5" x2="693.5" y1="964.3613" y2="977.3613"/><line style="stroke:#181818;stroke-width:1.0;" x1="652.5" x2="693.5" y1="977.3613" y2="977.3613"/><polygon fill="#181818" points="662.5,973.3613,652.5,977.3613,662.5,981.3613,658.5,977.3613" style="stroke:#181818;stroke-width:1.0;"/><text fill="#000000" font-family="sans-serif" font-size="13" font-weight="bold" lengthAdjust="spacing" textLength="30" x="658.5" y="959.6191">1.22</text><text fill="#000000" font-family="sans-serif" font-size="13" lengthAdjust="spacing" textLength="206" x="692.5" y="959.6191">Validate &amp; apply param overrides</text><line style="stroke:#181818;stroke-width:1.0;stroke-dasharray:2.0,2.0;" x1="651.5" x2="693.5" y1="1006.6719" y2="1006.6719"/><line style="stroke:#181818;stroke-width:1.0;stroke-dasharray:2.0,2.0;" x1="693.5" x2="693.5" y1="1006.6719" y2="1019.6719"/><line style="stroke:#181818;stroke-width:1.0;stroke-dasharray:2.0,2.0;" x1="652.5" x2="693.5" y1="1019.6719" y2="1019.6719"/><line style="stroke:#181818;stroke-width:1.0;" x1="652.5" x2="662.5" y1="1019.6719" y2="1015.6719"/><line style="stroke:#181818;stroke-width:1.0;" x1="652.5" x2="662.5" y1="1019.6719" y2="1023.6719"/><text fill="#000000" font-family="sans-serif" font-size="13" font-weight="bold" lengthAdjust="spacing" textLength="30" x="658.5" y="1001.9297">1.23</text><text fill="#000000" font-family="sans-serif" font-size="13" lengthAdjust="spacing" textLength="216" x="692.5" y="1001.9297">Emit `genart:setparams` message</text><path d="M920,993.8613 L920,1018.8613 L1143,1018.8613 L1143,1003.8613 L1133,993.8613 L920,993.8613 " fill="#FEFFDD" style="stroke:#181818;stroke-width:0.5;"/><path d="M1133,993.8613 L1133,1003.8613 L1143,1003.8613 L1133,993.8613 " fill="#FEFFDD" style="stroke:#181818;stroke-width:0.5;"/><text fill="#000000" font-family="sans-serif" font-size="13" lengthAdjust="spacing" textLength="202" x="926" y="1011.4297">Sent to current &amp; parent window</text><polygon fill="#181818" points="306.5,1055.6377,296.5,1059.6377,306.5,1063.6377,302.5,1059.6377" style="stroke:#181818;stroke-width:1.0;"/><line style="stroke:#181818;stroke-width:1.0;stroke-dasharray:2.0,2.0;" x1="300.5" x2="645.5" y1="1059.6377" y2="1059.6377"/><text fill="#000000" font-family="sans-serif" font-size="13" font-weight="bold" lengthAdjust="spacing" textLength="30" x="312.5" y="1054.8955">1.24</text><text fill="#000000" font-family="sans-serif" font-size="13" lengthAdjust="spacing" textLength="197" x="346.5" y="1054.8955">Typesafe param getter function</text><path d="M91,1032.6719 L91,1072.6719 L280,1072.6719 L280,1042.6719 L270,1032.6719 L91,1032.6719 " fill="#FEFFDD" style="stroke:#181818;stroke-width:0.5;"/><path d="M270,1032.6719 L270,1042.6719 L280,1042.6719 L270,1032.6719 " fill="#FEFFDD" style="stroke:#181818;stroke-width:0.5;"/><text fill="#000000" font-family="sans-serif" font-size="13" lengthAdjust="spacing" textLength="168" x="97" y="1050.2402">Artwork uses this function</text><text fill="#000000" font-family="sans-serif" font-size="13" lengthAdjust="spacing" textLength="144" x="97" y="1065.5508">to obtain param values</text><polygon fill="#181818" points="634.5,1095.6035,644.5,1099.6035,634.5,1103.6035,638.5,1099.6035" style="stroke:#181818;stroke-width:1.0;"/><line style="stroke:#181818;stroke-width:1.0;" x1="295.5" x2="640.5" y1="1099.6035" y2="1099.6035"/><text fill="#000000" font-family="sans-serif" font-size="13" font-weight="bold" lengthAdjust="spacing" textLength="30" x="302.5" y="1094.8613">1.25</text><text fill="#000000" font-family="sans-serif" font-size="13" lengthAdjust="spacing" textLength="139" x="336.5" y="1094.8613">Request screen config</text><polygon fill="#181818" points="909.5,1127.9141,919.5,1131.9141,909.5,1135.9141,913.5,1131.9141" style="stroke:#181818;stroke-width:1.0;"/><line style="stroke:#181818;stroke-width:1.0;" x1="646.5" x2="915.5" y1="1131.9141" y2="1131.9141"/><text fill="#000000" font-family="sans-serif" font-size="13" font-weight="bold" lengthAdjust="spacing" textLength="30" x="653.5" y="1127.1719">1.26</text><text fill="#000000" font-family="sans-serif" font-size="13" lengthAdjust="spacing" textLength="139" x="687.5" y="1127.1719">Request screen config</text><path d="M926,1112.6035 L926,1137.6035 L1121,1137.6035 L1121,1122.6035 L1111,1112.6035 L926,1112.6035 " fill="#FEFFDD" style="stroke:#181818;stroke-width:0.5;"/><path d="M1111,1112.6035 L1111,1122.6035 L1121,1122.6035 L1111,1112.6035 " fill="#FEFFDD" style="stroke:#181818;stroke-width:0.5;"/><text fill="#000000" font-family="sans-serif" font-size="13" lengthAdjust="spacing" textLength="174" x="932" y="1130.1719">optionally define resolution</text><polygon fill="#181818" points="657.5,1160.2246,647.5,1164.2246,657.5,1168.2246,653.5,1164.2246" style="stroke:#181818;stroke-width:1.0;"/><line style="stroke:#181818;stroke-width:1.0;stroke-dasharray:2.0,2.0;" x1="651.5" x2="920.5" y1="1164.2246" y2="1164.2246"/><text fill="#000000" font-family="sans-serif" font-size="13" font-weight="bold" lengthAdjust="spacing" textLength="30" x="663.5" y="1159.4824">1.27</text><text fill="#000000" font-family="sans-serif" font-size="13" lengthAdjust="spacing" textLength="42" x="697.5" y="1159.4824">Config</text><polygon fill="#181818" points="306.5,1189.5352,296.5,1193.5352,306.5,1197.5352,302.5,1193.5352" style="stroke:#181818;stroke-width:1.0;"/><line style="stroke:#181818;stroke-width:1.0;stroke-dasharray:2.0,2.0;" x1="300.5" x2="645.5" y1="1193.5352" y2="1193.5352"/><text fill="#000000" font-family="sans-serif" font-size="13" font-weight="bold" lengthAdjust="spacing" textLength="30" x="312.5" y="1188.793">1.28</text><text fill="#000000" font-family="sans-serif" font-size="13" lengthAdjust="spacing" textLength="42" x="346.5" y="1188.793">Config</text><line style="stroke:#181818;stroke-width:1.0;" x1="295.5" x2="337.5" y1="1222.8457" y2="1222.8457"/><line style="stroke:#181818;stroke-width:1.0;" x1="337.5" x2="337.5" y1="1222.8457" y2="1235.8457"/><line style="stroke:#181818;stroke-width:1.0;" x1="296.5" x2="337.5" y1="1235.8457" y2="1235.8457"/><polygon fill="#181818" points="306.5,1231.8457,296.5,1235.8457,306.5,1239.8457,302.5,1235.8457" style="stroke:#181818;stroke-width:1.0;"/><text fill="#000000" font-family="sans-serif" font-size="13" font-weight="bold" lengthAdjust="spacing" textLength="30" x="302.5" y="1218.1035">1.29</text><text fill="#000000" font-family="sans-serif" font-size="13" lengthAdjust="spacing" textLength="54" x="336.5" y="1218.1035">Initialize</text><polygon fill="#181818" points="629.5,1264.1563,639.5,1268.1563,629.5,1272.1563,633.5,1268.1563" style="stroke:#181818;stroke-width:1.0;"/><line style="stroke:#181818;stroke-width:1.0;" x1="295.5" x2="635.5" y1="1268.1563" y2="1268.1563"/><text fill="#000000" font-family="sans-serif" font-size="13" font-weight="bold" lengthAdjust="spacing" textLength="30" x="302.5" y="1263.4141">1.30</text><text fill="#000000" font-family="sans-serif" font-size="13" lengthAdjust="spacing" textLength="101" x="336.5" y="1263.4141">Get param value</text><path d="M22,1248.8457 L22,1273.8457 L280,1273.8457 L280,1258.8457 L270,1248.8457 L22,1248.8457 " fill="#FEFFDD" style="stroke:#181818;stroke-width:0.5;"/><path d="M270,1248.8457 L270,1258.8457 L280,1258.8457 L270,1248.8457 " fill="#FEFFDD" style="stroke:#181818;stroke-width:0.5;"/><text fill="#000000" font-family="sans-serif" font-size="13" lengthAdjust="spacing" textLength="237" x="28" y="1266.4141">Optionally time-based or randomized</text><line style="stroke:#181818;stroke-width:1.0;" x1="651.5" x2="693.5" y1="1300.4668" y2="1300.4668"/><line style="stroke:#181818;stroke-width:1.0;" x1="693.5" x2="693.5" y1="1300.4668" y2="1313.4668"/><line style="stroke:#181818;stroke-width:1.0;" x1="652.5" x2="693.5" y1="1313.4668" y2="1313.4668"/><polygon fill="#181818" points="662.5,1309.4668,652.5,1313.4668,662.5,1317.4668,658.5,1313.4668" style="stroke:#181818;stroke-width:1.0;"/><text fill="#000000" font-family="sans-serif" font-size="13" font-weight="bold" lengthAdjust="spacing" textLength="30" x="658.5" y="1295.7246">1.31</text><text fill="#000000" font-family="sans-serif" font-size="13" lengthAdjust="spacing" textLength="178" x="692.5" y="1295.7246">Delegate to param type impl</text><path d="M882,1287.6563 L882,1312.6563 L1165,1312.6563 L1165,1297.6563 L1155,1287.6563 L882,1287.6563 " fill="#FEFFDD" style="stroke:#181818;stroke-width:0.5;"/><path d="M1155,1287.6563 L1155,1297.6563 L1165,1297.6563 L1155,1287.6563 " fill="#FEFFDD" style="stroke:#181818;stroke-width:0.5;"/><text fill="#000000" font-family="sans-serif" font-size="13" lengthAdjust="spacing" textLength="262" x="888" y="1305.2246">Uses `ParamImpl.read()` if type defines it</text><polygon fill="#181818" points="306.5,1338.7773,296.5,1342.7773,306.5,1346.7773,302.5,1342.7773" style="stroke:#181818;stroke-width:1.0;"/><line style="stroke:#181818;stroke-width:1.0;stroke-dasharray:2.0,2.0;" x1="300.5" x2="645.5" y1="1342.7773" y2="1342.7773"/><text fill="#000000" font-family="sans-serif" font-size="13" font-weight="bold" lengthAdjust="spacing" textLength="30" x="312.5" y="1338.0352">1.32</text><text fill="#000000" font-family="sans-serif" font-size="13" lengthAdjust="spacing" textLength="75" x="346.5" y="1338.0352">Param value</text><rect fill="#EEEEEE" height="3" style="stroke:#EEEEEE;stroke-width:1.0;" width="1453.5" x="0" y="1371.4326"/><line style="stroke:#000000;stroke-width:1.0;" x1="0" x2="1453.5" y1="1371.4326" y2="1371.4326"/><line style="stroke:#000000;stroke-width:1.0;" x1="0" x2="1453.5" y1="1374.4326" y2="1374.4326"/><rect fill="#EEEEEE" height="23.3105" style="stroke:#000000;stroke-width:2.0;" width="123" x="665.25" y="1360.7773"/><text fill="#000000" font-family="sans-serif" font-size="13" font-weight="bold" lengthAdjust="spacing" textLength="105" x="671.25" y="1377.3457">Animation start</text><polygon fill="#181818" points="634.5,1411.3984,644.5,1415.3984,634.5,1419.3984,638.5,1415.3984" style="stroke:#181818;stroke-width:1.0;"/><line style="stroke:#181818;stroke-width:1.0;" x1="290.5" x2="640.5" y1="1415.3984" y2="1415.3984"/><text fill="#000000" font-family="sans-serif" font-size="13" font-weight="bold" lengthAdjust="spacing" textLength="30" x="297.5" y="1410.6563">1.33</text><text fill="#000000" font-family="sans-serif" font-size="13" lengthAdjust="spacing" textLength="192" x="331.5" y="1410.6563">Register update/draw function</text><line style="stroke:#181818;stroke-width:1.0;" x1="646.5" x2="688.5" y1="1444.709" y2="1444.709"/><line style="stroke:#181818;stroke-width:1.0;" x1="688.5" x2="688.5" y1="1444.709" y2="1457.709"/><line style="stroke:#181818;stroke-width:1.0;" x1="647.5" x2="688.5" y1="1457.709" y2="1457.709"/><polygon fill="#181818" points="657.5,1453.709,647.5,1457.709,657.5,1461.709,653.5,1457.709" style="stroke:#181818;stroke-width:1.0;"/><text fill="#000000" font-family="sans-serif" font-size="13" font-weight="bold" lengthAdjust="spacing" textLength="30" x="653.5" y="1439.9668">1.34</text><text fill="#000000" font-family="sans-serif" font-size="13" lengthAdjust="spacing" textLength="170" x="687.5" y="1439.9668">Transition state to `ready`</text><line style="stroke:#181818;stroke-width:1.0;stroke-dasharray:2.0,2.0;" x1="646.5" x2="693.5" y1="1482.0195" y2="1482.0195"/><line style="stroke:#181818;stroke-width:1.0;stroke-dasharray:2.0,2.0;" x1="693.5" x2="693.5" y1="1482.0195" y2="1495.0195"/><line style="stroke:#181818;stroke-width:1.0;stroke-dasharray:2.0,2.0;" x1="652.5" x2="693.5" y1="1495.0195" y2="1495.0195"/><polygon fill="#181818" points="662.5,1491.0195,652.5,1495.0195,662.5,1499.0195,658.5,1495.0195" style="stroke:#181818;stroke-width:1.0;"/><text fill="#000000" font-family="sans-serif" font-size="13" font-weight="bold" lengthAdjust="spacing" textLength="30" x="658.5" y="1477.2773">1.35</text><text fill="#000000" font-family="sans-serif" font-size="13" lengthAdjust="spacing" textLength="227" x="692.5" y="1477.2773">Emit `genart:statechange` message</text><line style="stroke:#181818;stroke-width:1.0;" x1="926.5" x2="968.5" y1="1529.3301" y2="1529.3301"/><line style="stroke:#181818;stroke-width:1.0;" x1="968.5" x2="968.5" y1="1529.3301" y2="1542.3301"/><line style="stroke:#181818;stroke-width:1.0;" x1="927.5" x2="968.5" y1="1542.3301" y2="1542.3301"/><polygon fill="#181818" points="937.5,1538.3301,927.5,1542.3301,937.5,1546.3301,933.5,1542.3301" style="stroke:#181818;stroke-width:1.0;"/><text fill="#000000" font-family="sans-serif" font-size="13" font-weight="bold" lengthAdjust="spacing" textLength="30" x="933.5" y="1524.5879">1.36</text><text fill="#000000" font-family="sans-serif" font-size="13" lengthAdjust="spacing" textLength="186" x="967.5" y="1524.5879">Process `ready` state change</text><polygon fill="#181818" points="662.5,1570.6406,652.5,1574.6406,662.5,1578.6406,658.5,1574.6406" style="stroke:#181818;stroke-width:1.0;"/><line style="stroke:#181818;stroke-width:1.0;" x1="656.5" x2="920.5" y1="1574.6406" y2="1574.6406"/><text fill="#000000" font-family="sans-serif" font-size="13" font-weight="bold" lengthAdjust="spacing" textLength="30" x="668.5" y="1569.8984">1.37</text><text fill="#000000" font-family="sans-serif" font-size="13" lengthAdjust="spacing" textLength="96" x="702.5" y="1569.8984">Start anim loop</text><path d="M931,1555.3301 L931,1580.3301 L1184,1580.3301 L1184,1565.3301 L1174,1555.3301 L931,1555.3301 " fill="#FEFFDD" style="stroke:#181818;stroke-width:0.5;"/><path d="M1174,1555.3301 L1174,1565.3301 L1184,1565.3301 L1174,1555.3301 " fill="#FEFFDD" style="stroke:#181818;stroke-width:0.5;"/><text fill="#000000" font-family="sans-serif" font-size="13" lengthAdjust="spacing" textLength="232" x="937" y="1572.8984">Platform decides auto-start behavior</text><polygon fill="#181818" points="1153.5,1602.9512,1163.5,1606.9512,1153.5,1610.9512,1157.5,1606.9512" style="stroke:#181818;stroke-width:1.0;"/><line style="stroke:#181818;stroke-width:1.0;" x1="651.5" x2="1159.5" y1="1606.9512" y2="1606.9512"/><text fill="#000000" font-family="sans-serif" font-size="13" font-weight="bold" lengthAdjust="spacing" textLength="30" x="658.5" y="1602.209">1.38</text><text fill="#000000" font-family="sans-serif" font-size="13" lengthAdjust="spacing" textLength="143" x="692.5" y="1602.209">Start (reset timestamp)</text><path d="M83,1621.9512 L157,1621.9512 L157,1629.2617 L147,1639.2617 L83,1639.2617 L83,1621.9512 " fill="#EEEEEE" style="stroke:#000000;stroke-width:1.5;"/><rect fill="none" height="266.4844" style="stroke:#000000;stroke-width:1.5;" width="1351.5" x="83" y="1621.9512"/><text fill="#000000" font-family="sans-serif" font-size="13" font-weight="bold" lengthAdjust="spacing" textLength="29" x="98" y="1635.5195">loop</text><text fill="#000000" font-family="sans-serif" font-size="11" font-weight="bold" lengthAdjust="spacing" textLength="95" x="172" y="1634.5859">[Animation loop]</text><polygon fill="#181818" points="1153.5,1659.5723,1163.5,1663.5723,1153.5,1667.5723,1157.5,1663.5723" style="stroke:#181818;stroke-width:1.0;"/><line style="stroke:#181818;stroke-width:1.0;" x1="651.5" x2="1159.5" y1="1663.5723" y2="1663.5723"/><text fill="#000000" font-family="sans-serif" font-size="13" font-weight="bold" lengthAdjust="spacing" textLength="30" x="658.5" y="1658.8301">1.39</text><text fill="#000000" font-family="sans-serif" font-size="13" lengthAdjust="spacing" textLength="159" x="692.5" y="1658.8301">Queue next frame update</text><path d="M1170,1644.2617 L1170,1669.2617 L1419,1669.2617 L1419,1654.2617 L1409,1644.2617 L1170,1644.2617 " fill="#FEFFDD" style="stroke:#181818;stroke-width:0.5;"/><path d="M1409,1644.2617 L1409,1654.2617 L1419,1654.2617 L1409,1644.2617 " fill="#FEFFDD" style="stroke:#181818;stroke-width:0.5;"/><text fill="#000000" font-family="sans-serif" font-size="13" lengthAdjust="spacing" textLength="228" x="1176" y="1661.8301">Default: `requestAnimationFrame()`</text><polygon fill="#181818" points="662.5,1691.8828,652.5,1695.8828,662.5,1699.8828,658.5,1695.8828" style="stroke:#181818;stroke-width:1.0;"/><line style="stroke:#181818;stroke-width:1.0;stroke-dasharray:2.0,2.0;" x1="656.5" x2="1164.5" y1="1695.8828" y2="1695.8828"/><text fill="#000000" font-family="sans-serif" font-size="13" font-weight="bold" lengthAdjust="spacing" textLength="30" x="668.5" y="1691.1406">1.40</text><text fill="#000000" font-family="sans-serif" font-size="13" lengthAdjust="spacing" textLength="257" x="702.5" y="1691.1406">Trigger update with current time &amp; frame</text><polygon fill="#181818" points="306.5,1721.1934,296.5,1725.1934,306.5,1729.1934,302.5,1725.1934" style="stroke:#181818;stroke-width:1.0;"/><line style="stroke:#181818;stroke-width:1.0;" x1="300.5" x2="640.5" y1="1725.1934" y2="1725.1934"/><text fill="#000000" font-family="sans-serif" font-size="13" font-weight="bold" lengthAdjust="spacing" textLength="30" x="312.5" y="1720.4512">1.41</text><text fill="#000000" font-family="sans-serif" font-size="13" lengthAdjust="spacing" textLength="163" x="346.5" y="1720.4512">Call update w/ timestamp</text><line style="stroke:#181818;stroke-width:1.0;" x1="295.5" x2="337.5" y1="1754.5039" y2="1754.5039"/><line style="stroke:#181818;stroke-width:1.0;" x1="337.5" x2="337.5" y1="1754.5039" y2="1767.5039"/><line style="stroke:#181818;stroke-width:1.0;" x1="296.5" x2="337.5" y1="1767.5039" y2="1767.5039"/><polygon fill="#181818" points="306.5,1763.5039,296.5,1767.5039,306.5,1771.5039,302.5,1767.5039" style="stroke:#181818;stroke-width:1.0;"/><text fill="#000000" font-family="sans-serif" font-size="13" font-weight="bold" lengthAdjust="spacing" textLength="30" x="302.5" y="1749.7617">1.42</text><text fill="#000000" font-family="sans-serif" font-size="13" lengthAdjust="spacing" textLength="127" x="336.5" y="1749.7617">Generate next frame</text><polygon fill="#181818" points="629.5,1795.8145,639.5,1799.8145,629.5,1803.8145,633.5,1799.8145" style="stroke:#181818;stroke-width:1.0;"/><line style="stroke:#181818;stroke-width:1.0;" x1="290.5" x2="635.5" y1="1799.8145" y2="1799.8145"/><text fill="#000000" font-family="sans-serif" font-size="13" font-weight="bold" lengthAdjust="spacing" textLength="30" x="297.5" y="1795.0723">1.43</text><text fill="#000000" font-family="sans-serif" font-size="13" lengthAdjust="spacing" textLength="288" x="331.5" y="1795.0723">Trigger screen capture (once, after X seconds)</text><path d="M93,1780.5039 L93,1805.5039 L280,1805.5039 L280,1790.5039 L270,1780.5039 L93,1780.5039 " fill="#FEFFDD" style="stroke:#181818;stroke-width:0.5;"/><path d="M270,1780.5039 L270,1790.5039 L280,1790.5039 L270,1780.5039 " fill="#FEFFDD" style="stroke:#181818;stroke-width:0.5;"/><text fill="#000000" font-family="sans-serif" font-size="13" lengthAdjust="spacing" textLength="166" x="99" y="1798.0723">`$genart.capture(canvas)`</text><polygon fill="#181818" points="909.5,1831.125,919.5,1835.125,909.5,1839.125,913.5,1835.125" style="stroke:#181818;stroke-width:1.0;"/><line style="stroke:#181818;stroke-width:1.0;" x1="651.5" x2="915.5" y1="1835.125" y2="1835.125"/><text fill="#000000" font-family="sans-serif" font-size="13" font-weight="bold" lengthAdjust="spacing" textLength="30" x="658.5" y="1830.3828">1.44</text><text fill="#000000" font-family="sans-serif" font-size="13" lengthAdjust="spacing" textLength="140" x="692.5" y="1830.3828">Handle screen capture</text><path d="M926,1815.8145 L926,1840.8145 L1116,1840.8145 L1116,1825.8145 L1106,1815.8145 L926,1815.8145 " fill="#FEFFDD" style="stroke:#181818;stroke-width:0.5;"/><path d="M1106,1815.8145 L1106,1825.8145 L1116,1825.8145 L1106,1815.8145 " fill="#FEFFDD" style="stroke:#181818;stroke-width:0.5;"/><text fill="#000000" font-family="sans-serif" font-size="13" lengthAdjust="spacing" textLength="169" x="932" y="1833.3828">Optional, platform specific</text><line style="stroke:#181818;stroke-width:1.0;stroke-dasharray:2.0,2.0;" x1="651.5" x2="693.5" y1="1867.4355" y2="1867.4355"/><line style="stroke:#181818;stroke-width:1.0;stroke-dasharray:2.0,2.0;" x1="693.5" x2="693.5" y1="1867.4355" y2="1880.4355"/><line style="stroke:#181818;stroke-width:1.0;stroke-dasharray:2.0,2.0;" x1="652.5" x2="693.5" y1="1880.4355" y2="1880.4355"/><polygon fill="#181818" points="662.5,1876.4355,652.5,1880.4355,662.5,1884.4355,658.5,1880.4355" style="stroke:#181818;stroke-width:1.0;"/><text fill="#000000" font-family="sans-serif" font-size="13" font-weight="bold" lengthAdjust="spacing" textLength="30" x="658.5" y="1862.6934">1.45</text><text fill="#000000" font-family="sans-serif" font-size="13" lengthAdjust="spacing" textLength="198" x="692.5" y="1862.6934">Emit `genart:capture` message</text><!--SRC=[fLTBR-Cs43xBluA78l02QwUv1iW2QVFO09kkcqVRGmwcfR7ChaIg96Mlj-X_xumeIgGb6ulsP5dalBwP-MPaXIs0NMlBgeBlGJCXXHMy4D-u5KfEU6sLhCiLdbpCBoRcYv0Lrxna5S_XaUjSI7RnusI2Bwr8HSMbPJzfjJEWetTeOQVqb_ZTuY7wloYuNIjTNcUyiWVoBwA4XLPRaU71XATMRBc5pbHoTSMUBTwlAtPrDPaaxG6RVV1ts2Nxf7Z6FhuyVcAxStOFai969vX9jQZi99aadMBoBKde43NGpoLxyCW0dWJw3zpsTghsDUDjE4cl_J3I93bKCggtzu1DLKNvuSMx_o2yUFhb7iMaGbSAM5iyVGR8XCpPu-lp2zlmgWBv9bU0Ae1nbpjc263plVQUmJBu2cbDVh9IPN1W4aNsx9mjD6m5xF3fDXEOX6JSWCl14-J2ECGQLLha6zAr_247YTxD3TXMQFfkYRSoE0vwS4Rf3ee6xOK5vrEQriQgabbH4bILByVO5P-OzutBjG73bax2gtkwlaFd4Duzos3Dwy86XHSLUX9vCUBMaOg8nORW7SME11lW0cpYrWihlsrg3qzN9sqxzUYspOyDrLxfVFgT2yimAxvBc6wSr8vzue9PyXtTzkxIdpkbetGt3HjvzWIsrfBjDY0x6tpBHS5N1Spdyp6dRY0jE1R-MUiDYZZICnMa9cnaHnEzb_Gd2G5Ta9oP_esM_cayJ41cZExJSyilm-PPS6CERCP9mwwPYJxvxcg1MQ3Av39xmq8erAuBsIfazZyXjKnOmzHEEf56yQ3RWeffmAkh38FDUbSYNlmDNQ3pLkCHXs-bgH7IBLrktRNx2eRghhECbS8O2gHj3vAguK0dUeTngfB2FxXlJcBxsaHppkky19miFGudwFaxEQzfWpDIQLeu6ja82ADgdVgCkS3OLl0twGV6Z00KQv6o4hWquzOxk7vkE0b1o4ALKqDpuHJx7K_Z6KFwB_QjEhK5hR7rUqnd7xp8ROdjk7J5Ved5xg1Sej_6u7emg85dmXihCQsrfiS6ANhO2SpaBh0GDF0BLGbVUyHoi0J0kfPfIn4HHtYvXdVjHfZkvfj4osfbkP0H-F6GS8DWI0bFy1VUjSHjW4oIAhaM-UH4bHqJ69qLHJC9XCGJCAgesyXEP3so7-7L7mKnTAVH4ZE8yXviYCq1_txklSM11hCLDrXroDtQDs8smerHaTr00JaTOYvw4c2Yh8f1jRmsexCXq0SydslW6R8y4sidv10ph5aQHe1OH84CSemRuxKKPJDet6f3csE0IH9FpPO5ppFDTq7vXNhzc8j2Va5qZF1MNEXBYcM_dFHUZ_GJNKutNEOGTDJ_NI5naAUeotlGkkJCd5gyckKQ1ukWAQEgmqBsSfYKbCY2qNV3pA6wWWtV2XKlN4Cw6b-z3_OTvyOKkmGhbOeGJPGLSHrv5IIqTVA8cbzhg859-8gx1nO9jBaTbE2DcoUN15VJpfs1En9pEyTmIVE95tdUrGrodDrqp4Uk8_qrniCcwRiOswoJFEz3ZUPKlrUDDpj-ue2cYtsaXtSZJprNOKfeLa-LJE4zuskgX3-O0IInp0sMZXQ2zR4LcwPSRhbnq8nrnmdI_8X4Wf-ZiH-3h7pkDkpk6ykFp8W9XZtLQWmd5AvZmo-1uB__mlmN]--></g></svg>