<?xml version="1.0" encoding="us-ascii" standalone="no"?><svg xmlns="http://www.w3.org/2000/svg" xmlns:xlink="http://www.w3.org/1999/xlink" contentStyleType="text/css" height="1672px" preserveAspectRatio="none" style="width:1303px;height:1672px;background:#FFFFFF;" version="1.1" viewBox="0 0 1303 1672" width="1303px" zoomAndPan="magnify"><defs/><g><text fill="#000000" font-family="sans-serif" font-size="14" font-weight="bold" lengthAdjust="spacing" textLength="169" x="563.25" y="28.5352">Art player initialization</text><rect fill="#FFFFFF" height="1542.9746" style="stroke:#181818;stroke-width:1.0;" width="10" x="34.5" y="83.9766"/><rect fill="#FFFFFF" height="878.0742" style="stroke:#181818;stroke-width:1.0;" width="10" x="285.5" y="514.7031"/><rect fill="#FFFFFF" height="243.8633" style="stroke:#181818;stroke-width:1.0;" width="10" x="636.5" y="270.8398"/><rect fill="#FFFFFF" height="399.0713" style="stroke:#181818;stroke-width:1.0;" width="10" x="636.5" y="614.6348"/><rect fill="#FFFFFF" height="71.6211" style="stroke:#181818;stroke-width:1.0;" width="10" x="636.5" y="1219.2246"/><rect fill="#FFFFFF" height="234.1738" style="stroke:#181818;stroke-width:1.0;" width="10" x="636.5" y="1392.7773"/><rect fill="#FFFFFF" height="206.5527" style="stroke:#181818;stroke-width:1.0;" width="10" x="910.5" y="308.1504"/><rect fill="#FFFFFF" height="154.5527" style="stroke:#181818;stroke-width:1.0;" width="10" x="910.5" y="734.5664"/><rect fill="none" height="212.1738" style="stroke:#000000;stroke-width:1.5;" width="1086" x="88" y="1407.7773"/><line style="stroke:#181818;stroke-width:0.5;stroke-dasharray:5.0,5.0;" x1="39" x2="39" y1="73.9766" y2="1636.9512"/><line style="stroke:#181818;stroke-width:0.5;stroke-dasharray:5.0,5.0;" x1="290.5" x2="290.5" y1="73.9766" y2="1636.9512"/><line style="stroke:#181818;stroke-width:0.5;stroke-dasharray:5.0,5.0;" x1="641.5" x2="641.5" y1="73.9766" y2="1636.9512"/><line style="stroke:#181818;stroke-width:0.5;stroke-dasharray:5.0,5.0;" x1="915" x2="915" y1="73.9766" y2="1636.9512"/><line style="stroke:#181818;stroke-width:0.5;stroke-dasharray:5.0,5.0;" x1="1104" x2="1104" y1="73.9766" y2="1636.9512"/><rect fill="#E2E2F0" height="30.4883" rx="2.5" ry="2.5" style="stroke:#181818;stroke-width:0.5;" width="69" x="5" y="42.4883"/><text fill="#000000" font-family="sans-serif" font-size="14" lengthAdjust="spacing" textLength="55" x="12" y="63.0234">Browser</text><rect fill="#E2E2F0" height="30.4883" rx="2.5" ry="2.5" style="stroke:#181818;stroke-width:0.5;" width="69" x="5" y="1635.9512"/><text fill="#000000" font-family="sans-serif" font-size="14" lengthAdjust="spacing" textLength="55" x="12" y="1656.4863">Browser</text><rect fill="#E2E2F0" height="30.4883" rx="2.5" ry="2.5" style="stroke:#181818;stroke-width:0.5;" width="70" x="255.5" y="42.4883"/><text fill="#000000" font-family="sans-serif" font-size="14" lengthAdjust="spacing" textLength="56" x="262.5" y="63.0234">ArtPiece</text><rect fill="#E2E2F0" height="30.4883" rx="2.5" ry="2.5" style="stroke:#181818;stroke-width:0.5;" width="70" x="255.5" y="1635.9512"/><text fill="#000000" font-family="sans-serif" font-size="14" lengthAdjust="spacing" textLength="56" x="262.5" y="1656.4863">ArtPiece</text><rect fill="#E2E2F0" height="30.4883" rx="2.5" ry="2.5" style="stroke:#181818;stroke-width:0.5;" width="36" x="623.5" y="42.4883"/><text fill="#000000" font-family="sans-serif" font-size="14" lengthAdjust="spacing" textLength="22" x="630.5" y="63.0234">API</text><rect fill="#E2E2F0" height="30.4883" rx="2.5" ry="2.5" style="stroke:#181818;stroke-width:0.5;" width="36" x="623.5" y="1635.9512"/><text fill="#000000" font-family="sans-serif" font-size="14" lengthAdjust="spacing" textLength="22" x="630.5" y="1656.4863">API</text><rect fill="#E2E2F0" height="30.4883" rx="2.5" ry="2.5" style="stroke:#181818;stroke-width:0.5;" width="127" x="852" y="42.4883"/><text fill="#000000" font-family="sans-serif" font-size="14" lengthAdjust="spacing" textLength="113" x="859" y="63.0234">PlatformAdapter</text><rect fill="#E2E2F0" height="30.4883" rx="2.5" ry="2.5" style="stroke:#181818;stroke-width:0.5;" width="127" x="852" y="1635.9512"/><text fill="#000000" font-family="sans-serif" font-size="14" lengthAdjust="spacing" textLength="113" x="859" y="1656.4863">PlatformAdapter</text><rect fill="#E2E2F0" height="30.4883" rx="2.5" ry="2.5" style="stroke:#181818;stroke-width:0.5;" width="119" x="1045" y="42.4883"/><text fill="#000000" font-family="sans-serif" font-size="14" lengthAdjust="spacing" textLength="105" x="1052" y="63.0234">TimingProvider</text><rect fill="#E2E2F0" height="30.4883" rx="2.5" ry="2.5" style="stroke:#181818;stroke-width:0.5;" width="119" x="1045" y="1635.9512"/><text fill="#000000" font-family="sans-serif" font-size="14" lengthAdjust="spacing" textLength="105" x="1052" y="1656.4863">TimingProvider</text><rect fill="#FFFFFF" height="1542.9746" style="stroke:#181818;stroke-width:1.0;" width="10" x="34.5" y="83.9766"/><rect fill="#FFFFFF" height="878.0742" style="stroke:#181818;stroke-width:1.0;" width="10" x="285.5" y="514.7031"/><rect fill="#FFFFFF" height="243.8633" style="stroke:#181818;stroke-width:1.0;" width="10" x="636.5" y="270.8398"/><rect fill="#FFFFFF" height="399.0713" style="stroke:#181818;stroke-width:1.0;" width="10" x="636.5" y="614.6348"/><rect fill="#FFFFFF" height="71.6211" style="stroke:#181818;stroke-width:1.0;" width="10" x="636.5" y="1219.2246"/><rect fill="#FFFFFF" height="234.1738" style="stroke:#181818;stroke-width:1.0;" width="10" x="636.5" y="1392.7773"/><rect fill="#FFFFFF" height="206.5527" style="stroke:#181818;stroke-width:1.0;" width="10" x="910.5" y="308.1504"/><rect fill="#FFFFFF" height="154.5527" style="stroke:#181818;stroke-width:1.0;" width="10" x="910.5" y="734.5664"/><rect fill="#EEEEEE" height="3" style="stroke:#EEEEEE;stroke-width:1.0;" width="1296.5" x="0" y="104.6318"/><line style="stroke:#000000;stroke-width:1.0;" x1="0" x2="1296.5" y1="104.6318" y2="104.6318"/><line style="stroke:#000000;stroke-width:1.0;" x1="0" x2="1296.5" y1="107.6318" y2="107.6318"/><rect fill="#EEEEEE" height="23.3105" style="stroke:#000000;stroke-width:2.0;" width="67" x="614.75" y="93.9766"/><text fill="#000000" font-family="sans-serif" font-size="13" font-weight="bold" lengthAdjust="spacing" textLength="49" x="620.75" y="110.5449">Startup</text><line style="stroke:#181818;stroke-width:1.0;" x1="44.5" x2="86.5" y1="148.5977" y2="148.5977"/><line style="stroke:#181818;stroke-width:1.0;" x1="86.5" x2="86.5" y1="148.5977" y2="161.5977"/><line style="stroke:#181818;stroke-width:1.0;" x1="45.5" x2="86.5" y1="161.5977" y2="161.5977"/><polygon fill="#181818" points="55.5,157.5977,45.5,161.5977,55.5,165.5977,51.5,161.5977" style="stroke:#181818;stroke-width:1.0;"/><text fill="#000000" font-family="sans-serif" font-size="13" font-weight="bold" lengthAdjust="spacing" textLength="21" x="51.5" y="143.8555">1.1</text><text fill="#000000" font-family="sans-serif" font-size="13" lengthAdjust="spacing" textLength="202" x="76.5" y="143.8555">Load HTML w/ GenArt API script</text><polygon fill="#181818" points="903.5,186.9082,913.5,190.9082,903.5,194.9082,907.5,190.9082" style="stroke:#181818;stroke-width:1.0;"/><line style="stroke:#181818;stroke-width:1.0;" x1="44.5" x2="909.5" y1="190.9082" y2="190.9082"/><text fill="#000000" font-family="sans-serif" font-size="13" font-weight="bold" lengthAdjust="spacing" textLength="21" x="51.5" y="186.166">1.2</text><text fill="#000000" font-family="sans-serif" font-size="13" lengthAdjust="spacing" textLength="139" x="76.5" y="186.166">Load platform adapter</text><polygon fill="#181818" points="1092.5,226.874,1102.5,230.874,1092.5,234.874,1096.5,230.874" style="stroke:#181818;stroke-width:1.0;"/><line style="stroke:#181818;stroke-width:1.0;stroke-dasharray:2.0,2.0;" x1="44.5" x2="1098.5" y1="230.874" y2="230.874"/><text fill="#000000" font-family="sans-serif" font-size="13" font-weight="bold" lengthAdjust="spacing" textLength="21" x="51.5" y="226.1318">1.3</text><text fill="#000000" font-family="sans-serif" font-size="13" lengthAdjust="spacing" textLength="182" x="76.5" y="226.1318">Load custom timing provider</text><path d="M1109,203.9082 L1109,243.9082 L1286,243.9082 L1286,213.9082 L1276,203.9082 L1109,203.9082 " fill="#FEFFDD" style="stroke:#181818;stroke-width:0.5;"/><path d="M1276,203.9082 L1276,213.9082 L1286,213.9082 L1276,203.9082 " fill="#FEFFDD" style="stroke:#181818;stroke-width:0.5;"/><text fill="#000000" font-family="sans-serif" font-size="13" lengthAdjust="spacing" textLength="156" x="1115" y="221.4766">optional, by default uses</text><text fill="#000000" font-family="sans-serif" font-size="13" lengthAdjust="spacing" textLength="140" x="1115" y="236.7871">`timingProviderRAF()`</text><polygon fill="#181818" points="278.5,266.8398,288.5,270.8398,278.5,274.8398,282.5,270.8398" style="stroke:#181818;stroke-width:1.0;"/><line style="stroke:#181818;stroke-width:1.0;" x1="44.5" x2="284.5" y1="270.8398" y2="270.8398"/><text fill="#000000" font-family="sans-serif" font-size="13" font-weight="bold" lengthAdjust="spacing" textLength="21" x="51.5" y="266.0977">1.4</text><text fill="#000000" font-family="sans-serif" font-size="13" lengthAdjust="spacing" textLength="128" x="76.5" y="266.0977">Load art piece script</text><line style="stroke:#181818;stroke-width:1.0;" x1="646.5" x2="693.5" y1="295.1504" y2="295.1504"/><line style="stroke:#181818;stroke-width:1.0;" x1="693.5" x2="693.5" y1="295.1504" y2="308.1504"/><line style="stroke:#181818;stroke-width:1.0;" x1="652.5" x2="693.5" y1="308.1504" y2="308.1504"/><polygon fill="#181818" points="662.5,304.1504,652.5,308.1504,662.5,312.1504,658.5,308.1504" style="stroke:#181818;stroke-width:1.0;"/><text fill="#000000" font-family="sans-serif" font-size="13" font-weight="bold" lengthAdjust="spacing" textLength="21" x="658.5" y="290.4082">1.5</text><text fill="#000000" font-family="sans-serif" font-size="13" lengthAdjust="spacing" textLength="54" x="683.5" y="290.4082">Initialize</text><line style="stroke:#181818;stroke-width:1.0;" x1="920.5" x2="962.5" y1="342.4609" y2="342.4609"/><line style="stroke:#181818;stroke-width:1.0;" x1="962.5" x2="962.5" y1="342.4609" y2="355.4609"/><line style="stroke:#181818;stroke-width:1.0;" x1="921.5" x2="962.5" y1="355.4609" y2="355.4609"/><polygon fill="#181818" points="931.5,351.4609,921.5,355.4609,931.5,359.4609,927.5,355.4609" style="stroke:#181818;stroke-width:1.0;"/><text fill="#000000" font-family="sans-serif" font-size="13" font-weight="bold" lengthAdjust="spacing" textLength="21" x="927.5" y="337.7188">1.6</text><text fill="#000000" font-family="sans-serif" font-size="13" lengthAdjust="spacing" textLength="118" x="952.5" y="337.7188">Initialize (optional)</text><line style="stroke:#181818;stroke-width:1.0;" x1="920.5" x2="962.5" y1="384.7715" y2="384.7715"/><line style="stroke:#181818;stroke-width:1.0;" x1="962.5" x2="962.5" y1="384.7715" y2="397.7715"/><line style="stroke:#181818;stroke-width:1.0;" x1="921.5" x2="962.5" y1="397.7715" y2="397.7715"/><polygon fill="#181818" points="931.5,393.7715,921.5,397.7715,931.5,401.7715,927.5,397.7715" style="stroke:#181818;stroke-width:1.0;"/><text fill="#000000" font-family="sans-serif" font-size="13" font-weight="bold" lengthAdjust="spacing" textLength="21" x="927.5" y="380.0293">1.7</text><text fill="#000000" font-family="sans-serif" font-size="13" lengthAdjust="spacing" textLength="92" x="952.5" y="380.0293">Initialize PRNG</text><path d="M750,371.9609 L750,396.9609 L905,396.9609 L905,381.9609 L895,371.9609 L750,371.9609 " fill="#FEFFDD" style="stroke:#181818;stroke-width:0.5;"/><path d="M895,371.9609 L895,381.9609 L905,381.9609 L895,371.9609 " fill="#FEFFDD" style="stroke:#181818;stroke-width:0.5;"/><text fill="#000000" font-family="sans-serif" font-size="13" lengthAdjust="spacing" textLength="134" x="756" y="389.5293">Seeded/deterministic</text><line style="stroke:#181818;stroke-width:1.0;" x1="920.5" x2="962.5" y1="427.082" y2="427.082"/><line style="stroke:#181818;stroke-width:1.0;" x1="962.5" x2="962.5" y1="427.082" y2="440.082"/><line style="stroke:#181818;stroke-width:1.0;" x1="921.5" x2="962.5" y1="440.082" y2="440.082"/><polygon fill="#181818" points="931.5,436.082,921.5,440.082,931.5,444.082,927.5,440.082" style="stroke:#181818;stroke-width:1.0;"/><text fill="#000000" font-family="sans-serif" font-size="13" font-weight="bold" lengthAdjust="spacing" textLength="21" x="927.5" y="422.3398">1.8</text><text fill="#000000" font-family="sans-serif" font-size="13" lengthAdjust="spacing" textLength="124" x="952.5" y="422.3398">Set execution mode</text><path d="M758,414.2715 L758,439.2715 L905,439.2715 L905,424.2715 L895,414.2715 L758,414.2715 " fill="#FEFFDD" style="stroke:#181818;stroke-width:0.5;"/><path d="M895,414.2715 L895,424.2715 L905,424.2715 L895,414.2715 " fill="#FEFFDD" style="stroke:#181818;stroke-width:0.5;"/><text fill="#000000" font-family="sans-serif" font-size="13" lengthAdjust="spacing" textLength="126" x="764" y="431.8398">Play / Preview / Edit</text><line style="stroke:#181818;stroke-width:1.0;" x1="1104.5" x2="1146.5" y1="469.3926" y2="469.3926"/><line style="stroke:#181818;stroke-width:1.0;" x1="1146.5" x2="1146.5" y1="469.3926" y2="482.3926"/><line style="stroke:#181818;stroke-width:1.0;" x1="1105.5" x2="1146.5" y1="482.3926" y2="482.3926"/><polygon fill="#181818" points="1115.5,478.3926,1105.5,482.3926,1115.5,486.3926,1111.5,482.3926" style="stroke:#181818;stroke-width:1.0;"/><text fill="#000000" font-family="sans-serif" font-size="13" font-weight="bold" lengthAdjust="spacing" textLength="21" x="1111.5" y="464.6504">1.9</text><text fill="#000000" font-family="sans-serif" font-size="13" lengthAdjust="spacing" textLength="118" x="1136.5" y="464.6504">Initialize (optional)</text><polygon fill="#181818" points="652.5,510.7031,642.5,514.7031,652.5,518.7031,648.5,514.7031" style="stroke:#181818;stroke-width:1.0;"/><line style="stroke:#181818;stroke-width:1.0;" x1="646.5" x2="914.5" y1="514.7031" y2="514.7031"/><text fill="#000000" font-family="sans-serif" font-size="13" font-weight="bold" lengthAdjust="spacing" textLength="30" x="658.5" y="509.9609">1.10</text><text fill="#000000" font-family="sans-serif" font-size="13" lengthAdjust="spacing" textLength="102" x="692.5" y="509.9609">Register adapter</text><path d="M925,495.3926 L925,520.3926 L1090,520.3926 L1090,505.3926 L1080,495.3926 L925,495.3926 " fill="#FEFFDD" style="stroke:#181818;stroke-width:0.5;"/><path d="M1080,495.3926 L1080,505.3926 L1090,505.3926 L1080,495.3926 " fill="#FEFFDD" style="stroke:#181818;stroke-width:0.5;"/><text fill="#000000" font-family="sans-serif" font-size="13" lengthAdjust="spacing" textLength="144" x="931" y="512.9609">`$genart.setAdapter()`</text><polygon fill="#181818" points="629.5,546.0137,639.5,550.0137,629.5,554.0137,633.5,550.0137" style="stroke:#181818;stroke-width:1.0;"/><line style="stroke:#181818;stroke-width:1.0;" x1="295.5" x2="635.5" y1="550.0137" y2="550.0137"/><text fill="#000000" font-family="sans-serif" font-size="13" font-weight="bold" lengthAdjust="spacing" textLength="30" x="302.5" y="545.2715">1.11</text><text fill="#000000" font-family="sans-serif" font-size="13" lengthAdjust="spacing" textLength="177" x="336.5" y="545.2715">Wait for adapter registration</text><path d="M51,530.7031 L51,555.7031 L280,555.7031 L280,540.7031 L270,530.7031 L51,530.7031 " fill="#FEFFDD" style="stroke:#181818;stroke-width:0.5;"/><path d="M270,530.7031 L270,540.7031 L280,540.7031 L270,530.7031 " fill="#FEFFDD" style="stroke:#181818;stroke-width:0.5;"/><text fill="#000000" font-family="sans-serif" font-size="13" lengthAdjust="spacing" textLength="208" x="57" y="548.2715">`await $genart.waitForAdapter()`</text><polygon fill="#181818" points="306.5,578.3242,296.5,582.3242,306.5,586.3242,302.5,582.3242" style="stroke:#181818;stroke-width:1.0;"/><line style="stroke:#181818;stroke-width:1.0;stroke-dasharray:2.0,2.0;" x1="300.5" x2="640.5" y1="582.3242" y2="582.3242"/><text fill="#000000" font-family="sans-serif" font-size="13" font-weight="bold" lengthAdjust="spacing" textLength="30" x="312.5" y="577.582">1.12</text><text fill="#000000" font-family="sans-serif" font-size="13" lengthAdjust="spacing" textLength="200" x="346.5" y="577.582">Return when adapter available...</text><polygon fill="#181818" points="624.5,610.6348,634.5,614.6348,624.5,618.6348,628.5,614.6348" style="stroke:#181818;stroke-width:1.0;"/><line style="stroke:#181818;stroke-width:1.0;" x1="295.5" x2="630.5" y1="614.6348" y2="614.6348"/><text fill="#000000" font-family="sans-serif" font-size="13" font-weight="bold" lengthAdjust="spacing" textLength="30" x="302.5" y="609.8926">1.13</text><text fill="#000000" font-family="sans-serif" font-size="13" lengthAdjust="spacing" textLength="195" x="336.5" y="609.8926">Declare &amp; register param specs</text><path d="M99,595.3242 L99,620.3242 L280,620.3242 L280,605.3242 L270,595.3242 L99,595.3242 " fill="#FEFFDD" style="stroke:#181818;stroke-width:0.5;"/><path d="M270,595.3242 L270,605.3242 L280,605.3242 L270,595.3242 " fill="#FEFFDD" style="stroke:#181818;stroke-width:0.5;"/><text fill="#000000" font-family="sans-serif" font-size="13" lengthAdjust="spacing" textLength="160" x="105" y="612.8926">`$genart.setParams({...})`</text><line style="stroke:#181818;stroke-width:1.0;" x1="646.5" x2="688.5" y1="646.9453" y2="646.9453"/><line style="stroke:#181818;stroke-width:1.0;" x1="688.5" x2="688.5" y1="646.9453" y2="659.9453"/><line style="stroke:#181818;stroke-width:1.0;" x1="647.5" x2="688.5" y1="659.9453" y2="659.9453"/><polygon fill="#181818" points="657.5,655.9453,647.5,659.9453,657.5,663.9453,653.5,659.9453" style="stroke:#181818;stroke-width:1.0;"/><text fill="#000000" font-family="sans-serif" font-size="13" font-weight="bold" lengthAdjust="spacing" textLength="30" x="653.5" y="642.2031">1.14</text><text fill="#000000" font-family="sans-serif" font-size="13" lengthAdjust="spacing" textLength="140" x="687.5" y="642.2031">Validate params specs</text><path d="M839,634.1348 L839,659.1348 L1017,659.1348 L1017,644.1348 L1007,634.1348 L839,634.1348 " fill="#FEFFDD" style="stroke:#181818;stroke-width:0.5;"/><path d="M1007,634.1348 L1007,644.1348 L1017,644.1348 L1007,634.1348 " fill="#FEFFDD" style="stroke:#181818;stroke-width:0.5;"/><text fill="#000000" font-family="sans-serif" font-size="13" lengthAdjust="spacing" textLength="157" x="845" y="651.7031">Ensure valid param types</text><line style="stroke:#181818;stroke-width:1.0;" x1="646.5" x2="688.5" y1="689.2559" y2="689.2559"/><line style="stroke:#181818;stroke-width:1.0;" x1="688.5" x2="688.5" y1="689.2559" y2="702.2559"/><line style="stroke:#181818;stroke-width:1.0;" x1="647.5" x2="688.5" y1="702.2559" y2="702.2559"/><polygon fill="#181818" points="657.5,698.2559,647.5,702.2559,657.5,706.2559,653.5,702.2559" style="stroke:#181818;stroke-width:1.0;"/><text fill="#000000" font-family="sans-serif" font-size="13" font-weight="bold" lengthAdjust="spacing" textLength="30" x="653.5" y="684.5137">1.15</text><text fill="#000000" font-family="sans-serif" font-size="13" lengthAdjust="spacing" textLength="171" x="687.5" y="684.5137">Add missing default values</text><path d="M870,676.4453 L870,701.4453 L1069,701.4453 L1069,686.4453 L1059,676.4453 L870,676.4453 " fill="#FEFFDD" style="stroke:#181818;stroke-width:0.5;"/><path d="M1059,676.4453 L1059,686.4453 L1069,686.4453 L1059,676.4453 " fill="#FEFFDD" style="stroke:#181818;stroke-width:0.5;"/><text fill="#000000" font-family="sans-serif" font-size="13" lengthAdjust="spacing" textLength="178" x="876" y="694.0137">Randomize missing defaults</text><polygon fill="#181818" points="898.5,730.5664,908.5,734.5664,898.5,738.5664,902.5,734.5664" style="stroke:#181818;stroke-width:1.0;"/><line style="stroke:#181818;stroke-width:1.0;" x1="646.5" x2="904.5" y1="734.5664" y2="734.5664"/><text fill="#000000" font-family="sans-serif" font-size="13" font-weight="bold" lengthAdjust="spacing" textLength="30" x="653.5" y="729.8242">1.16</text><text fill="#000000" font-family="sans-serif" font-size="13" lengthAdjust="spacing" textLength="111" x="687.5" y="729.8242">Pass param specs</text><path d="M925,715.2559 L925,740.2559 L1105,740.2559 L1105,725.2559 L1095,715.2559 L925,715.2559 " fill="#FEFFDD" style="stroke:#181818;stroke-width:0.5;"/><path d="M1095,715.2559 L1095,725.2559 L1105,725.2559 L1095,715.2559 " fill="#FEFFDD" style="stroke:#181818;stroke-width:0.5;"/><text fill="#000000" font-family="sans-serif" font-size="13" lengthAdjust="spacing" textLength="159" x="931" y="732.8242">`adapter.setParams({...})`</text><line style="stroke:#181818;stroke-width:1.0;" x1="920.5" x2="962.5" y1="766.877" y2="766.877"/><line style="stroke:#181818;stroke-width:1.0;" x1="962.5" x2="962.5" y1="766.877" y2="779.877"/><line style="stroke:#181818;stroke-width:1.0;" x1="921.5" x2="962.5" y1="779.877" y2="779.877"/><polygon fill="#181818" points="931.5,775.877,921.5,779.877,931.5,783.877,927.5,779.877" style="stroke:#181818;stroke-width:1.0;"/><text fill="#000000" font-family="sans-serif" font-size="13" font-weight="bold" lengthAdjust="spacing" textLength="30" x="927.5" y="762.1348">1.17</text><text fill="#000000" font-family="sans-serif" font-size="13" lengthAdjust="spacing" textLength="131" x="961.5" y="762.1348">Load &amp; parse params</text><polygon fill="#181818" points="657.5,805.1875,647.5,809.1875,657.5,813.1875,653.5,809.1875" style="stroke:#181818;stroke-width:1.0;"/><line style="stroke:#181818;stroke-width:1.0;stroke-dasharray:2.0,2.0;" x1="651.5" x2="909.5" y1="809.1875" y2="809.1875"/><text fill="#000000" font-family="sans-serif" font-size="13" font-weight="bold" lengthAdjust="spacing" textLength="30" x="663.5" y="804.4453">1.18</text><text fill="#000000" font-family="sans-serif" font-size="13" lengthAdjust="spacing" textLength="151" x="697.5" y="804.4453">return true if successful</text><polygon fill="#181818" points="898.5,845.1533,908.5,849.1533,898.5,853.1533,902.5,849.1533" style="stroke:#181818;stroke-width:1.0;"/><line style="stroke:#181818;stroke-width:1.0;" x1="646.5" x2="904.5" y1="849.1533" y2="849.1533"/><text fill="#000000" font-family="sans-serif" font-size="13" font-weight="bold" lengthAdjust="spacing" textLength="30" x="653.5" y="844.4111">1.19</text><text fill="#000000" font-family="sans-serif" font-size="13" lengthAdjust="spacing" textLength="156" x="687.5" y="844.4111">Update/augment params</text><path d="M925,822.1875 L925,862.1875 L1102,862.1875 L1102,832.1875 L1092,822.1875 L925,822.1875 " fill="#FEFFDD" style="stroke:#181818;stroke-width:0.5;"/><path d="M1092,822.1875 L1092,832.1875 L1102,832.1875 L1092,822.1875 " fill="#FEFFDD" style="stroke:#181818;stroke-width:0.5;"/><text fill="#000000" font-family="sans-serif" font-size="13" lengthAdjust="spacing" textLength="151" x="931" y="839.7559">source param values via</text><text fill="#000000" font-family="sans-serif" font-size="13" lengthAdjust="spacing" textLength="156" x="931" y="855.0664">platform-specific means</text><polygon fill="#181818" points="657.5,885.1191,647.5,889.1191,657.5,893.1191,653.5,889.1191" style="stroke:#181818;stroke-width:1.0;"/><line style="stroke:#181818;stroke-width:1.0;stroke-dasharray:2.0,2.0;" x1="651.5" x2="914.5" y1="889.1191" y2="889.1191"/><text fill="#000000" font-family="sans-serif" font-size="13" font-weight="bold" lengthAdjust="spacing" textLength="30" x="663.5" y="884.377">1.20</text><text fill="#000000" font-family="sans-serif" font-size="13" lengthAdjust="spacing" textLength="82" x="697.5" y="884.377">Param values</text><line style="stroke:#181818;stroke-width:1.0;" x1="646.5" x2="688.5" y1="918.4297" y2="918.4297"/><line style="stroke:#181818;stroke-width:1.0;" x1="688.5" x2="688.5" y1="918.4297" y2="931.4297"/><line style="stroke:#181818;stroke-width:1.0;" x1="647.5" x2="688.5" y1="931.4297" y2="931.4297"/><polygon fill="#181818" points="657.5,927.4297,647.5,931.4297,657.5,935.4297,653.5,931.4297" style="stroke:#181818;stroke-width:1.0;"/><text fill="#000000" font-family="sans-serif" font-size="13" font-weight="bold" lengthAdjust="spacing" textLength="30" x="653.5" y="913.6875">1.21</text><text fill="#000000" font-family="sans-serif" font-size="13" lengthAdjust="spacing" textLength="206" x="687.5" y="913.6875">Validate &amp; apply param overrides</text><line style="stroke:#181818;stroke-width:1.0;stroke-dasharray:2.0,2.0;" x1="646.5" x2="688.5" y1="960.7402" y2="960.7402"/><line style="stroke:#181818;stroke-width:1.0;stroke-dasharray:2.0,2.0;" x1="688.5" x2="688.5" y1="960.7402" y2="973.7402"/><line style="stroke:#181818;stroke-width:1.0;stroke-dasharray:2.0,2.0;" x1="647.5" x2="688.5" y1="973.7402" y2="973.7402"/><line style="stroke:#181818;stroke-width:1.0;" x1="647.5" x2="657.5" y1="973.7402" y2="969.7402"/><line style="stroke:#181818;stroke-width:1.0;" x1="647.5" x2="657.5" y1="973.7402" y2="977.7402"/><text fill="#000000" font-family="sans-serif" font-size="13" font-weight="bold" lengthAdjust="spacing" textLength="30" x="653.5" y="955.998">1.22</text><text fill="#000000" font-family="sans-serif" font-size="13" lengthAdjust="spacing" textLength="216" x="687.5" y="955.998">Emit `genart:setparams` message</text><path d="M915,947.9297 L915,972.9297 L1138,972.9297 L1138,957.9297 L1128,947.9297 L915,947.9297 " fill="#FEFFDD" style="stroke:#181818;stroke-width:0.5;"/><path d="M1128,947.9297 L1128,957.9297 L1138,957.9297 L1128,947.9297 " fill="#FEFFDD" style="stroke:#181818;stroke-width:0.5;"/><text fill="#000000" font-family="sans-serif" font-size="13" lengthAdjust="spacing" textLength="202" x="921" y="965.498">Sent to current &amp; parent window</text><polygon fill="#181818" points="306.5,1009.7061,296.5,1013.7061,306.5,1017.7061,302.5,1013.7061" style="stroke:#181818;stroke-width:1.0;"/><line style="stroke:#181818;stroke-width:1.0;stroke-dasharray:2.0,2.0;" x1="300.5" x2="640.5" y1="1013.7061" y2="1013.7061"/><text fill="#000000" font-family="sans-serif" font-size="13" font-weight="bold" lengthAdjust="spacing" textLength="30" x="312.5" y="1008.9639">1.23</text><text fill="#000000" font-family="sans-serif" font-size="13" lengthAdjust="spacing" textLength="197" x="346.5" y="1008.9639">Typesafe param getter function</text><path d="M90,986.7402 L90,1026.7402 L280,1026.7402 L280,996.7402 L270,986.7402 L90,986.7402 " fill="#FEFFDD" style="stroke:#181818;stroke-width:0.5;"/><path d="M270,986.7402 L270,996.7402 L280,996.7402 L270,986.7402 " fill="#FEFFDD" style="stroke:#181818;stroke-width:0.5;"/><text fill="#000000" font-family="sans-serif" font-size="13" lengthAdjust="spacing" textLength="169" x="96" y="1004.3086">ArtPiece uses this function</text><text fill="#000000" font-family="sans-serif" font-size="13" lengthAdjust="spacing" textLength="144" x="96" y="1019.6191">to obtain param values</text><polygon fill="#181818" points="629.5,1049.6719,639.5,1053.6719,629.5,1057.6719,633.5,1053.6719" style="stroke:#181818;stroke-width:1.0;"/><line style="stroke:#181818;stroke-width:1.0;" x1="295.5" x2="635.5" y1="1053.6719" y2="1053.6719"/><text fill="#000000" font-family="sans-serif" font-size="13" font-weight="bold" lengthAdjust="spacing" textLength="30" x="302.5" y="1048.9297">1.24</text><text fill="#000000" font-family="sans-serif" font-size="13" lengthAdjust="spacing" textLength="139" x="336.5" y="1048.9297">Request screen config</text><polygon fill="#181818" points="903.5,1081.9824,913.5,1085.9824,903.5,1089.9824,907.5,1085.9824" style="stroke:#181818;stroke-width:1.0;"/><line style="stroke:#181818;stroke-width:1.0;" x1="641.5" x2="909.5" y1="1085.9824" y2="1085.9824"/><text fill="#000000" font-family="sans-serif" font-size="13" font-weight="bold" lengthAdjust="spacing" textLength="30" x="648.5" y="1081.2402">1.25</text><text fill="#000000" font-family="sans-serif" font-size="13" lengthAdjust="spacing" textLength="139" x="682.5" y="1081.2402">Request screen config</text><path d="M920,1066.6719 L920,1091.6719 L1115,1091.6719 L1115,1076.6719 L1105,1066.6719 L920,1066.6719 " fill="#FEFFDD" style="stroke:#181818;stroke-width:0.5;"/><path d="M1105,1066.6719 L1105,1076.6719 L1115,1076.6719 L1105,1066.6719 " fill="#FEFFDD" style="stroke:#181818;stroke-width:0.5;"/><text fill="#000000" font-family="sans-serif" font-size="13" lengthAdjust="spacing" textLength="174" x="926" y="1084.2402">optionally define resolution</text><polygon fill="#181818" points="652.5,1114.293,642.5,1118.293,652.5,1122.293,648.5,1118.293" style="stroke:#181818;stroke-width:1.0;"/><line style="stroke:#181818;stroke-width:1.0;stroke-dasharray:2.0,2.0;" x1="646.5" x2="914.5" y1="1118.293" y2="1118.293"/><text fill="#000000" font-family="sans-serif" font-size="13" font-weight="bold" lengthAdjust="spacing" textLength="30" x="658.5" y="1113.5508">1.26</text><text fill="#000000" font-family="sans-serif" font-size="13" lengthAdjust="spacing" textLength="42" x="692.5" y="1113.5508">Config</text><polygon fill="#181818" points="306.5,1143.6035,296.5,1147.6035,306.5,1151.6035,302.5,1147.6035" style="stroke:#181818;stroke-width:1.0;"/><line style="stroke:#181818;stroke-width:1.0;stroke-dasharray:2.0,2.0;" x1="300.5" x2="640.5" y1="1147.6035" y2="1147.6035"/><text fill="#000000" font-family="sans-serif" font-size="13" font-weight="bold" lengthAdjust="spacing" textLength="30" x="312.5" y="1142.8613">1.27</text><text fill="#000000" font-family="sans-serif" font-size="13" lengthAdjust="spacing" textLength="42" x="346.5" y="1142.8613">Config</text><line style="stroke:#181818;stroke-width:1.0;" x1="295.5" x2="337.5" y1="1176.9141" y2="1176.9141"/><line style="stroke:#181818;stroke-width:1.0;" x1="337.5" x2="337.5" y1="1176.9141" y2="1189.9141"/><line style="stroke:#181818;stroke-width:1.0;" x1="296.5" x2="337.5" y1="1189.9141" y2="1189.9141"/><polygon fill="#181818" points="306.5,1185.9141,296.5,1189.9141,306.5,1193.9141,302.5,1189.9141" style="stroke:#181818;stroke-width:1.0;"/><text fill="#000000" font-family="sans-serif" font-size="13" font-weight="bold" lengthAdjust="spacing" textLength="30" x="302.5" y="1172.1719">1.28</text><text fill="#000000" font-family="sans-serif" font-size="13" lengthAdjust="spacing" textLength="54" x="336.5" y="1172.1719">Initialize</text><polygon fill="#181818" points="624.5,1215.2246,634.5,1219.2246,624.5,1223.2246,628.5,1219.2246" style="stroke:#181818;stroke-width:1.0;"/><line style="stroke:#181818;stroke-width:1.0;" x1="295.5" x2="630.5" y1="1219.2246" y2="1219.2246"/><text fill="#000000" font-family="sans-serif" font-size="13" font-weight="bold" lengthAdjust="spacing" textLength="30" x="302.5" y="1214.4824">1.29</text><text fill="#000000" font-family="sans-serif" font-size="13" lengthAdjust="spacing" textLength="101" x="336.5" y="1214.4824">Get param value</text><line style="stroke:#181818;stroke-width:1.0;" x1="646.5" x2="688.5" y1="1248.5352" y2="1248.5352"/><line style="stroke:#181818;stroke-width:1.0;" x1="688.5" x2="688.5" y1="1248.5352" y2="1261.5352"/><line style="stroke:#181818;stroke-width:1.0;" x1="647.5" x2="688.5" y1="1261.5352" y2="1261.5352"/><polygon fill="#181818" points="657.5,1257.5352,647.5,1261.5352,657.5,1265.5352,653.5,1261.5352" style="stroke:#181818;stroke-width:1.0;"/><text fill="#000000" font-family="sans-serif" font-size="13" font-weight="bold" lengthAdjust="spacing" textLength="30" x="653.5" y="1243.793">1.30</text><text fill="#000000" font-family="sans-serif" font-size="13" lengthAdjust="spacing" textLength="147" x="687.5" y="1243.793">Delegate to param impl</text><polygon fill="#181818" points="306.5,1286.8457,296.5,1290.8457,306.5,1294.8457,302.5,1290.8457" style="stroke:#181818;stroke-width:1.0;"/><line style="stroke:#181818;stroke-width:1.0;stroke-dasharray:2.0,2.0;" x1="300.5" x2="640.5" y1="1290.8457" y2="1290.8457"/><text fill="#000000" font-family="sans-serif" font-size="13" font-weight="bold" lengthAdjust="spacing" textLength="30" x="312.5" y="1286.1035">1.31</text><text fill="#000000" font-family="sans-serif" font-size="13" lengthAdjust="spacing" textLength="75" x="346.5" y="1286.1035">Param value</text><rect fill="#EEEEEE" height="3" style="stroke:#EEEEEE;stroke-width:1.0;" width="1296.5" x="0" y="1319.501"/><line style="stroke:#000000;stroke-width:1.0;" x1="0" x2="1296.5" y1="1319.501" y2="1319.501"/><line style="stroke:#000000;stroke-width:1.0;" x1="0" x2="1296.5" y1="1322.501" y2="1322.501"/><rect fill="#EEEEEE" height="23.3105" style="stroke:#000000;stroke-width:2.0;" width="121" x="587.75" y="1308.8457"/><text fill="#000000" font-family="sans-serif" font-size="13" font-weight="bold" lengthAdjust="spacing" textLength="103" x="593.75" y="1325.4141">Animation loop</text><polygon fill="#181818" points="629.5,1359.4668,639.5,1363.4668,629.5,1367.4668,633.5,1363.4668" style="stroke:#181818;stroke-width:1.0;"/><line style="stroke:#181818;stroke-width:1.0;" x1="295.5" x2="635.5" y1="1363.4668" y2="1363.4668"/><text fill="#000000" font-family="sans-serif" font-size="13" font-weight="bold" lengthAdjust="spacing" textLength="30" x="302.5" y="1358.7246">1.32</text><text fill="#000000" font-family="sans-serif" font-size="13" lengthAdjust="spacing" textLength="192" x="336.5" y="1358.7246">Register update/draw function</text><polygon fill="#181818" points="1092.5,1388.7773,1102.5,1392.7773,1092.5,1396.7773,1096.5,1392.7773" style="stroke:#181818;stroke-width:1.0;"/><line style="stroke:#181818;stroke-width:1.0;" x1="646.5" x2="1098.5" y1="1392.7773" y2="1392.7773"/><text fill="#000000" font-family="sans-serif" font-size="13" font-weight="bold" lengthAdjust="spacing" textLength="30" x="653.5" y="1388.0352">1.33</text><text fill="#000000" font-family="sans-serif" font-size="13" lengthAdjust="spacing" textLength="143" x="687.5" y="1388.0352">Start (reset timestamp)</text><path d="M88,1407.7773 L162,1407.7773 L162,1415.0879 L152,1425.0879 L88,1425.0879 L88,1407.7773 " fill="#EEEEEE" style="stroke:#000000;stroke-width:1.5;"/><rect fill="none" height="212.1738" style="stroke:#000000;stroke-width:1.5;" width="1086" x="88" y="1407.7773"/><text fill="#000000" font-family="sans-serif" font-size="13" font-weight="bold" lengthAdjust="spacing" textLength="29" x="103" y="1421.3457">loop</text><text fill="#000000" font-family="sans-serif" font-size="11" font-weight="bold" lengthAdjust="spacing" textLength="95" x="177" y="1420.4121">[Animation loop]</text><polygon fill="#181818" points="1092.5,1442.3984,1102.5,1446.3984,1092.5,1450.3984,1096.5,1446.3984" style="stroke:#181818;stroke-width:1.0;"/><line style="stroke:#181818;stroke-width:1.0;" x1="646.5" x2="1098.5" y1="1446.3984" y2="1446.3984"/><text fill="#000000" font-family="sans-serif" font-size="13" font-weight="bold" lengthAdjust="spacing" textLength="30" x="653.5" y="1441.6563">1.34</text><text fill="#000000" font-family="sans-serif" font-size="13" lengthAdjust="spacing" textLength="121" x="687.5" y="1441.6563">Request timestamp</text><polygon fill="#181818" points="657.5,1471.709,647.5,1475.709,657.5,1479.709,653.5,1475.709" style="stroke:#181818;stroke-width:1.0;"/><line style="stroke:#181818;stroke-width:1.0;stroke-dasharray:2.0,2.0;" x1="651.5" x2="1103.5" y1="1475.709" y2="1475.709"/><text fill="#000000" font-family="sans-serif" font-size="13" font-weight="bold" lengthAdjust="spacing" textLength="30" x="663.5" y="1470.9668">1.35</text><text fill="#000000" font-family="sans-serif" font-size="13" lengthAdjust="spacing" textLength="70" x="697.5" y="1470.9668">Timestamp</text><polygon fill="#181818" points="301.5,1501.0195,291.5,1505.0195,301.5,1509.0195,297.5,1505.0195" style="stroke:#181818;stroke-width:1.0;"/><line style="stroke:#181818;stroke-width:1.0;" x1="295.5" x2="635.5" y1="1505.0195" y2="1505.0195"/><text fill="#000000" font-family="sans-serif" font-size="13" font-weight="bold" lengthAdjust="spacing" textLength="30" x="307.5" y="1500.2773">1.36</text><text fill="#000000" font-family="sans-serif" font-size="13" lengthAdjust="spacing" textLength="163" x="341.5" y="1500.2773">Call update w/ timestamp</text><line style="stroke:#181818;stroke-width:1.0;" x1="290.5" x2="332.5" y1="1534.3301" y2="1534.3301"/><line style="stroke:#181818;stroke-width:1.0;" x1="332.5" x2="332.5" y1="1534.3301" y2="1547.3301"/><line style="stroke:#181818;stroke-width:1.0;" x1="291.5" x2="332.5" y1="1547.3301" y2="1547.3301"/><polygon fill="#181818" points="301.5,1543.3301,291.5,1547.3301,301.5,1551.3301,297.5,1547.3301" style="stroke:#181818;stroke-width:1.0;"/><text fill="#000000" font-family="sans-serif" font-size="13" font-weight="bold" lengthAdjust="spacing" textLength="30" x="297.5" y="1529.5879">1.37</text><text fill="#000000" font-family="sans-serif" font-size="13" lengthAdjust="spacing" textLength="127" x="331.5" y="1529.5879">Generate next frame</text><polygon fill="#181818" points="624.5,1575.6406,634.5,1579.6406,624.5,1583.6406,628.5,1579.6406" style="stroke:#181818;stroke-width:1.0;"/><line style="stroke:#181818;stroke-width:1.0;" x1="290.5" x2="630.5" y1="1579.6406" y2="1579.6406"/><text fill="#000000" font-family="sans-serif" font-size="13" font-weight="bold" lengthAdjust="spacing" textLength="30" x="297.5" y="1574.8984">1.38</text><text fill="#000000" font-family="sans-serif" font-size="13" lengthAdjust="spacing" textLength="288" x="331.5" y="1574.8984">Trigger screen capture (once, after X seconds)</text><path d="M98,1560.3301 L98,1585.3301 L285,1585.3301 L285,1570.3301 L275,1560.3301 L98,1560.3301 " fill="#FEFFDD" style="stroke:#181818;stroke-width:0.5;"/><path d="M275,1560.3301 L275,1570.3301 L285,1570.3301 L275,1560.3301 " fill="#FEFFDD" style="stroke:#181818;stroke-width:0.5;"/><text fill="#000000" font-family="sans-serif" font-size="13" lengthAdjust="spacing" textLength="166" x="104" y="1577.8984">`$genart.capture(canvas)`</text><polygon fill="#181818" points="903.5,1607.9512,913.5,1611.9512,903.5,1615.9512,907.5,1611.9512" style="stroke:#181818;stroke-width:1.0;"/><line style="stroke:#181818;stroke-width:1.0;" x1="646.5" x2="909.5" y1="1611.9512" y2="1611.9512"/><text fill="#000000" font-family="sans-serif" font-size="13" font-weight="bold" lengthAdjust="spacing" textLength="30" x="653.5" y="1607.209">1.39</text><text fill="#000000" font-family="sans-serif" font-size="13" lengthAdjust="spacing" textLength="140" x="687.5" y="1607.209">Handle screen capture</text><!--SRC=[dLPDRzms43rBls8EXR46udLzDU00syPn0YI5i7QR77fOMXh9H2LI9QdTR8F-zmufKKjAAoEeBrvnE3DltdpHS5CZR9I1jcP7LC05DvpL_1zck1GfwumKNVDCaflrJQh_ug9bYZNGiWe_CrLn0JS_foaT6fxpbWa3loXvqAYYC_AGSSmnFim-HjzPpKmfLRCfM6ic1fvumqMLARdd1ObIbXk-PmP7RydT7JmQqkXQkBjBqsGGmDLRVmTkuPDa1Nnu-lm93jVmWC96JZ10vugt9bAQeF7AxN0CR41vqY6b6ARNoJjjP0F62Q7rGIH2KW2ALo_aEP6jPPpLR-3v20MMhAiDT1eroNOcihlTl5zTxj84HG7MHeJRK-sTCvjST-237Bcp2KWI6x_Let-tyD7dduoUBaupaoHJTiuITZ86An_UvVzGphQ_FP2Qewl6qf3q4R70uhf0kapKS4sLygEM7z40ViEyiuYWaGLEZ9FA4QuXKxZdUA1VzmMtAPfazro-bq8-ZwtdV8iLuQUJiQI2oY3vxgSA1QLnhT4CoYxzIO7B6GfaDirXrdqlKkfzhOnOlZ1kW0nvBA0SEDMFWvYc7JlOsnwT_NWlLOJGrLPSb5iqdH9mU44nEc5xnclsNEDwlJuBwntcDLC85mCUqkdda6unrs6fzZLzmca_af31pEhfrNTozQ_36BJHf1d-e4GMrgZpfKTdSNhkXUu8sjvU7b2PO-lwDZQtAGfekDPs2FW69wqE9pQ98oOAsTWYcjmFZSuBEsDQJtYPLD90-7aUNcdt7-miDt0kB0JjIJklF7AY-cemgaFW9UWkpr7higkTtcAalxSsBzUigngaxH2uYcOg_MdPgNm0Cx0DUyvweH_cLvOkNl8S6cIYDnHMnIi1P85XU_MLdbokhmjWRLiV1vHoZqhHF3ab- -gjLxblgEDsVJNVKXRxo7U4MsjQoRECFrfwZAGLf9JzwP9ZVnmubTWXy13sw9EjNrPwsYeqDkYo4_am1g8vC2hQRGNcXUlnwf-2VCjdm-YTqCPCpGRKcRRVujzqsTZDXJGkSYbANgMlrCMIGiI9dykrsxDSa0IrhBiXjkLS_nhvZoaxoS8eJl9eiSuZVK0J4dHceaMLymvhhAoGwEtLUDFM2zdC8hjptkdbj16ySICUQYdT0oe2cKmMLTUtNw7O8QoA0U9iARft6Qo8POgIdZAK8TQqb_6IybjfzZvnY6A00HypPxu4HZ_sydHpZqG-XRSynK5MgKg6QEsBCRAva6XwLQAozmL-erLArEFiTk-Qwh4YCBvMgThi7bb9aUCROAKb-Yjef28kz6NKTC6RO51RvKpicUu7-M9xVA2zKkF4O-fctVp547pxH_P_]--></g></svg>