<?xml version="1.0" encoding="us-ascii" standalone="no"?><svg xmlns="http://www.w3.org/2000/svg" xmlns:xlink="http://www.w3.org/1999/xlink" contentStyleType="text/css" height="1591px" preserveAspectRatio="none" style="width:1287px;height:1591px;background:#FFFFFF;" version="1.1" viewBox="0 0 1287 1591" width="1287px" zoomAndPan="magnify"><defs/><g><text fill="#000000" font-family="sans-serif" font-size="14" font-weight="bold" lengthAdjust="spacing" textLength="169" x="555.25" y="28.5352">Art player initialization</text><rect fill="#FFFFFF" height="1462.3535" style="stroke:#181818;stroke-width:1.0;" width="10" x="34.5" y="83.9766"/><rect fill="#FFFFFF" height="806.4531" style="stroke:#181818;stroke-width:1.0;" width="10" x="285.5" y="511.7031"/><rect fill="#FFFFFF" height="240.8633" style="stroke:#181818;stroke-width:1.0;" width="10" x="630.5" y="270.8398"/><rect fill="#FFFFFF" height="71.6211" style="stroke:#181818;stroke-width:1.0;" width="10" x="630.5" y="1144.6035"/><rect fill="#FFFFFF" height="228.1738" style="stroke:#181818;stroke-width:1.0;" width="10" x="630.5" y="1318.1563"/><rect fill="#FFFFFF" height="203.5527" style="stroke:#181818;stroke-width:1.0;" width="10" x="894.5" y="308.1504"/><rect fill="#FFFFFF" height="79.9316" style="stroke:#181818;stroke-width:1.0;" width="10" x="894.5" y="734.5664"/><rect fill="none" height="59.6211" style="stroke:#000000;stroke-width:1.5;" width="280" x="245.5" y="526.7031"/><rect fill="none" height="206.1738" style="stroke:#000000;stroke-width:1.5;" width="912.5" x="245.5" y="1333.1563"/><line style="stroke:#181818;stroke-width:0.5;stroke-dasharray:5.0,5.0;" x1="39" x2="39" y1="73.9766" y2="1556.3301"/><line style="stroke:#181818;stroke-width:0.5;stroke-dasharray:5.0,5.0;" x1="290.5" x2="290.5" y1="73.9766" y2="1556.3301"/><line style="stroke:#181818;stroke-width:0.5;stroke-dasharray:5.0,5.0;" x1="635.5" x2="635.5" y1="73.9766" y2="1556.3301"/><line style="stroke:#181818;stroke-width:0.5;stroke-dasharray:5.0,5.0;" x1="899" x2="899" y1="73.9766" y2="1556.3301"/><line style="stroke:#181818;stroke-width:0.5;stroke-dasharray:5.0,5.0;" x1="1088" x2="1088" y1="73.9766" y2="1556.3301"/><rect fill="#E2E2F0" height="30.4883" rx="2.5" ry="2.5" style="stroke:#181818;stroke-width:0.5;" width="69" x="5" y="42.4883"/><text fill="#000000" font-family="sans-serif" font-size="14" lengthAdjust="spacing" textLength="55" x="12" y="63.0234">Browser</text><rect fill="#E2E2F0" height="30.4883" rx="2.5" ry="2.5" style="stroke:#181818;stroke-width:0.5;" width="69" x="5" y="1555.3301"/><text fill="#000000" font-family="sans-serif" font-size="14" lengthAdjust="spacing" textLength="55" x="12" y="1575.8652">Browser</text><rect fill="#E2E2F0" height="30.4883" rx="2.5" ry="2.5" style="stroke:#181818;stroke-width:0.5;" width="70" x="255.5" y="42.4883"/><text fill="#000000" font-family="sans-serif" font-size="14" lengthAdjust="spacing" textLength="56" x="262.5" y="63.0234">ArtPiece</text><rect fill="#E2E2F0" height="30.4883" rx="2.5" ry="2.5" style="stroke:#181818;stroke-width:0.5;" width="70" x="255.5" y="1555.3301"/><text fill="#000000" font-family="sans-serif" font-size="14" lengthAdjust="spacing" textLength="56" x="262.5" y="1575.8652">ArtPiece</text><rect fill="#E2E2F0" height="30.4883" rx="2.5" ry="2.5" style="stroke:#181818;stroke-width:0.5;" width="36" x="617.5" y="42.4883"/><text fill="#000000" font-family="sans-serif" font-size="14" lengthAdjust="spacing" textLength="22" x="624.5" y="63.0234">API</text><rect fill="#E2E2F0" height="30.4883" rx="2.5" ry="2.5" style="stroke:#181818;stroke-width:0.5;" width="36" x="617.5" y="1555.3301"/><text fill="#000000" font-family="sans-serif" font-size="14" lengthAdjust="spacing" textLength="22" x="624.5" y="1575.8652">API</text><rect fill="#E2E2F0" height="30.4883" rx="2.5" ry="2.5" style="stroke:#181818;stroke-width:0.5;" width="127" x="836" y="42.4883"/><text fill="#000000" font-family="sans-serif" font-size="14" lengthAdjust="spacing" textLength="113" x="843" y="63.0234">PlatformAdapter</text><rect fill="#E2E2F0" height="30.4883" rx="2.5" ry="2.5" style="stroke:#181818;stroke-width:0.5;" width="127" x="836" y="1555.3301"/><text fill="#000000" font-family="sans-serif" font-size="14" lengthAdjust="spacing" textLength="113" x="843" y="1575.8652">PlatformAdapter</text><rect fill="#E2E2F0" height="30.4883" rx="2.5" ry="2.5" style="stroke:#181818;stroke-width:0.5;" width="119" x="1029" y="42.4883"/><text fill="#000000" font-family="sans-serif" font-size="14" lengthAdjust="spacing" textLength="105" x="1036" y="63.0234">TimingProvider</text><rect fill="#E2E2F0" height="30.4883" rx="2.5" ry="2.5" style="stroke:#181818;stroke-width:0.5;" width="119" x="1029" y="1555.3301"/><text fill="#000000" font-family="sans-serif" font-size="14" lengthAdjust="spacing" textLength="105" x="1036" y="1575.8652">TimingProvider</text><rect fill="#FFFFFF" height="1462.3535" style="stroke:#181818;stroke-width:1.0;" width="10" x="34.5" y="83.9766"/><rect fill="#FFFFFF" height="806.4531" style="stroke:#181818;stroke-width:1.0;" width="10" x="285.5" y="511.7031"/><rect fill="#FFFFFF" height="240.8633" style="stroke:#181818;stroke-width:1.0;" width="10" x="630.5" y="270.8398"/><rect fill="#FFFFFF" height="71.6211" style="stroke:#181818;stroke-width:1.0;" width="10" x="630.5" y="1144.6035"/><rect fill="#FFFFFF" height="228.1738" style="stroke:#181818;stroke-width:1.0;" width="10" x="630.5" y="1318.1563"/><rect fill="#FFFFFF" height="203.5527" style="stroke:#181818;stroke-width:1.0;" width="10" x="894.5" y="308.1504"/><rect fill="#FFFFFF" height="79.9316" style="stroke:#181818;stroke-width:1.0;" width="10" x="894.5" y="734.5664"/><rect fill="#EEEEEE" height="3" style="stroke:#EEEEEE;stroke-width:1.0;" width="1280.5" x="0" y="104.6318"/><line style="stroke:#000000;stroke-width:1.0;" x1="0" x2="1280.5" y1="104.6318" y2="104.6318"/><line style="stroke:#000000;stroke-width:1.0;" x1="0" x2="1280.5" y1="107.6318" y2="107.6318"/><rect fill="#EEEEEE" height="23.3105" style="stroke:#000000;stroke-width:2.0;" width="67" x="606.75" y="93.9766"/><text fill="#000000" font-family="sans-serif" font-size="13" font-weight="bold" lengthAdjust="spacing" textLength="49" x="612.75" y="110.5449">Startup</text><line style="stroke:#181818;stroke-width:1.0;" x1="44.5" x2="86.5" y1="148.5977" y2="148.5977"/><line style="stroke:#181818;stroke-width:1.0;" x1="86.5" x2="86.5" y1="148.5977" y2="161.5977"/><line style="stroke:#181818;stroke-width:1.0;" x1="45.5" x2="86.5" y1="161.5977" y2="161.5977"/><polygon fill="#181818" points="55.5,157.5977,45.5,161.5977,55.5,165.5977,51.5,161.5977" style="stroke:#181818;stroke-width:1.0;"/><text fill="#000000" font-family="sans-serif" font-size="13" font-weight="bold" lengthAdjust="spacing" textLength="21" x="51.5" y="143.8555">1.1</text><text fill="#000000" font-family="sans-serif" font-size="13" lengthAdjust="spacing" textLength="202" x="76.5" y="143.8555">Load HTML w/ GenArt API script</text><polygon fill="#181818" points="887.5,186.9082,897.5,190.9082,887.5,194.9082,891.5,190.9082" style="stroke:#181818;stroke-width:1.0;"/><line style="stroke:#181818;stroke-width:1.0;" x1="44.5" x2="893.5" y1="190.9082" y2="190.9082"/><text fill="#000000" font-family="sans-serif" font-size="13" font-weight="bold" lengthAdjust="spacing" textLength="21" x="51.5" y="186.166">1.2</text><text fill="#000000" font-family="sans-serif" font-size="13" lengthAdjust="spacing" textLength="139" x="76.5" y="186.166">Load platform adapter</text><polygon fill="#181818" points="1076.5,226.874,1086.5,230.874,1076.5,234.874,1080.5,230.874" style="stroke:#181818;stroke-width:1.0;"/><line style="stroke:#181818;stroke-width:1.0;stroke-dasharray:2.0,2.0;" x1="44.5" x2="1082.5" y1="230.874" y2="230.874"/><text fill="#000000" font-family="sans-serif" font-size="13" font-weight="bold" lengthAdjust="spacing" textLength="21" x="51.5" y="226.1318">1.3</text><text fill="#000000" font-family="sans-serif" font-size="13" lengthAdjust="spacing" textLength="182" x="76.5" y="226.1318">Load custom timing provider</text><path d="M1093,203.9082 L1093,243.9082 L1270,243.9082 L1270,213.9082 L1260,203.9082 L1093,203.9082 " fill="#FEFFDD" style="stroke:#181818;stroke-width:0.5;"/><path d="M1260,203.9082 L1260,213.9082 L1270,213.9082 L1260,203.9082 " fill="#FEFFDD" style="stroke:#181818;stroke-width:0.5;"/><text fill="#000000" font-family="sans-serif" font-size="13" lengthAdjust="spacing" textLength="156" x="1099" y="221.4766">optional, by default uses</text><text fill="#000000" font-family="sans-serif" font-size="13" lengthAdjust="spacing" textLength="140" x="1099" y="236.7871">`timingProviderRAF()`</text><polygon fill="#181818" points="278.5,266.8398,288.5,270.8398,278.5,274.8398,282.5,270.8398" style="stroke:#181818;stroke-width:1.0;"/><line style="stroke:#181818;stroke-width:1.0;" x1="44.5" x2="284.5" y1="270.8398" y2="270.8398"/><text fill="#000000" font-family="sans-serif" font-size="13" font-weight="bold" lengthAdjust="spacing" textLength="21" x="51.5" y="266.0977">1.4</text><text fill="#000000" font-family="sans-serif" font-size="13" lengthAdjust="spacing" textLength="128" x="76.5" y="266.0977">Load art piece script</text><line style="stroke:#181818;stroke-width:1.0;" x1="640.5" x2="687.5" y1="295.1504" y2="295.1504"/><line style="stroke:#181818;stroke-width:1.0;" x1="687.5" x2="687.5" y1="295.1504" y2="308.1504"/><line style="stroke:#181818;stroke-width:1.0;" x1="646.5" x2="687.5" y1="308.1504" y2="308.1504"/><polygon fill="#181818" points="656.5,304.1504,646.5,308.1504,656.5,312.1504,652.5,308.1504" style="stroke:#181818;stroke-width:1.0;"/><text fill="#000000" font-family="sans-serif" font-size="13" font-weight="bold" lengthAdjust="spacing" textLength="21" x="652.5" y="290.4082">1.5</text><text fill="#000000" font-family="sans-serif" font-size="13" lengthAdjust="spacing" textLength="54" x="677.5" y="290.4082">Initialize</text><line style="stroke:#181818;stroke-width:1.0;" x1="904.5" x2="946.5" y1="342.4609" y2="342.4609"/><line style="stroke:#181818;stroke-width:1.0;" x1="946.5" x2="946.5" y1="342.4609" y2="355.4609"/><line style="stroke:#181818;stroke-width:1.0;" x1="905.5" x2="946.5" y1="355.4609" y2="355.4609"/><polygon fill="#181818" points="915.5,351.4609,905.5,355.4609,915.5,359.4609,911.5,355.4609" style="stroke:#181818;stroke-width:1.0;"/><text fill="#000000" font-family="sans-serif" font-size="13" font-weight="bold" lengthAdjust="spacing" textLength="21" x="911.5" y="337.7188">1.6</text><text fill="#000000" font-family="sans-serif" font-size="13" lengthAdjust="spacing" textLength="118" x="936.5" y="337.7188">Initialize (optional)</text><line style="stroke:#181818;stroke-width:1.0;" x1="904.5" x2="946.5" y1="384.7715" y2="384.7715"/><line style="stroke:#181818;stroke-width:1.0;" x1="946.5" x2="946.5" y1="384.7715" y2="397.7715"/><line style="stroke:#181818;stroke-width:1.0;" x1="905.5" x2="946.5" y1="397.7715" y2="397.7715"/><polygon fill="#181818" points="915.5,393.7715,905.5,397.7715,915.5,401.7715,911.5,397.7715" style="stroke:#181818;stroke-width:1.0;"/><text fill="#000000" font-family="sans-serif" font-size="13" font-weight="bold" lengthAdjust="spacing" textLength="21" x="911.5" y="380.0293">1.7</text><text fill="#000000" font-family="sans-serif" font-size="13" lengthAdjust="spacing" textLength="92" x="936.5" y="380.0293">Initialize PRNG</text><path d="M734,371.9609 L734,396.9609 L889,396.9609 L889,381.9609 L879,371.9609 L734,371.9609 " fill="#FEFFDD" style="stroke:#181818;stroke-width:0.5;"/><path d="M879,371.9609 L879,381.9609 L889,381.9609 L879,371.9609 " fill="#FEFFDD" style="stroke:#181818;stroke-width:0.5;"/><text fill="#000000" font-family="sans-serif" font-size="13" lengthAdjust="spacing" textLength="134" x="740" y="389.5293">Seeded/deterministic</text><line style="stroke:#181818;stroke-width:1.0;" x1="904.5" x2="946.5" y1="427.082" y2="427.082"/><line style="stroke:#181818;stroke-width:1.0;" x1="946.5" x2="946.5" y1="427.082" y2="440.082"/><line style="stroke:#181818;stroke-width:1.0;" x1="905.5" x2="946.5" y1="440.082" y2="440.082"/><polygon fill="#181818" points="915.5,436.082,905.5,440.082,915.5,444.082,911.5,440.082" style="stroke:#181818;stroke-width:1.0;"/><text fill="#000000" font-family="sans-serif" font-size="13" font-weight="bold" lengthAdjust="spacing" textLength="21" x="911.5" y="422.3398">1.8</text><text fill="#000000" font-family="sans-serif" font-size="13" lengthAdjust="spacing" textLength="124" x="936.5" y="422.3398">Set execution mode</text><path d="M742,414.2715 L742,439.2715 L889,439.2715 L889,424.2715 L879,414.2715 L742,414.2715 " fill="#FEFFDD" style="stroke:#181818;stroke-width:0.5;"/><path d="M879,414.2715 L879,424.2715 L889,424.2715 L879,414.2715 " fill="#FEFFDD" style="stroke:#181818;stroke-width:0.5;"/><text fill="#000000" font-family="sans-serif" font-size="13" lengthAdjust="spacing" textLength="126" x="748" y="431.8398">Play / Preview / Edit</text><line style="stroke:#181818;stroke-width:1.0;" x1="1088.5" x2="1130.5" y1="469.3926" y2="469.3926"/><line style="stroke:#181818;stroke-width:1.0;" x1="1130.5" x2="1130.5" y1="469.3926" y2="482.3926"/><line style="stroke:#181818;stroke-width:1.0;" x1="1089.5" x2="1130.5" y1="482.3926" y2="482.3926"/><polygon fill="#181818" points="1099.5,478.3926,1089.5,482.3926,1099.5,486.3926,1095.5,482.3926" style="stroke:#181818;stroke-width:1.0;"/><text fill="#000000" font-family="sans-serif" font-size="13" font-weight="bold" lengthAdjust="spacing" textLength="21" x="1095.5" y="464.6504">1.9</text><text fill="#000000" font-family="sans-serif" font-size="13" lengthAdjust="spacing" textLength="118" x="1120.5" y="464.6504">Initialize (optional)</text><polygon fill="#181818" points="646.5,507.7031,636.5,511.7031,646.5,515.7031,642.5,511.7031" style="stroke:#181818;stroke-width:1.0;"/><line style="stroke:#181818;stroke-width:1.0;" x1="640.5" x2="898.5" y1="511.7031" y2="511.7031"/><text fill="#000000" font-family="sans-serif" font-size="13" font-weight="bold" lengthAdjust="spacing" textLength="30" x="652.5" y="506.9609">1.10</text><text fill="#000000" font-family="sans-serif" font-size="13" lengthAdjust="spacing" textLength="102" x="686.5" y="506.9609">Register adapter</text><path d="M245.5,526.7031 L319.5,526.7031 L319.5,534.0137 L309.5,544.0137 L245.5,544.0137 L245.5,526.7031 " fill="#EEEEEE" style="stroke:#000000;stroke-width:1.5;"/><rect fill="none" height="59.6211" style="stroke:#000000;stroke-width:1.5;" width="280" x="245.5" y="526.7031"/><text fill="#000000" font-family="sans-serif" font-size="13" font-weight="bold" lengthAdjust="spacing" textLength="29" x="260.5" y="540.2715">loop</text><line style="stroke:#181818;stroke-width:1.0;" x1="295.5" x2="337.5" y1="565.3242" y2="565.3242"/><line style="stroke:#181818;stroke-width:1.0;" x1="337.5" x2="337.5" y1="565.3242" y2="578.3242"/><line style="stroke:#181818;stroke-width:1.0;" x1="296.5" x2="337.5" y1="578.3242" y2="578.3242"/><polygon fill="#181818" points="306.5,574.3242,296.5,578.3242,306.5,582.3242,302.5,578.3242" style="stroke:#181818;stroke-width:1.0;"/><text fill="#000000" font-family="sans-serif" font-size="13" font-weight="bold" lengthAdjust="spacing" textLength="30" x="302.5" y="560.582">1.11</text><text fill="#000000" font-family="sans-serif" font-size="13" lengthAdjust="spacing" textLength="177" x="336.5" y="560.582">Wait for adapter registration</text><polygon fill="#181818" points="623.5,613.6348,633.5,617.6348,623.5,621.6348,627.5,617.6348" style="stroke:#181818;stroke-width:1.0;"/><line style="stroke:#181818;stroke-width:1.0;" x1="295.5" x2="629.5" y1="617.6348" y2="617.6348"/><text fill="#000000" font-family="sans-serif" font-size="13" font-weight="bold" lengthAdjust="spacing" textLength="30" x="302.5" y="612.8926">1.12</text><text fill="#000000" font-family="sans-serif" font-size="13" lengthAdjust="spacing" textLength="195" x="336.5" y="612.8926">Declare &amp; register param specs</text><path d="M99,598.3242 L99,623.3242 L280,623.3242 L280,608.3242 L270,598.3242 L99,598.3242 " fill="#FEFFDD" style="stroke:#181818;stroke-width:0.5;"/><path d="M270,598.3242 L270,608.3242 L280,608.3242 L270,598.3242 " fill="#FEFFDD" style="stroke:#181818;stroke-width:0.5;"/><text fill="#000000" font-family="sans-serif" font-size="13" lengthAdjust="spacing" textLength="160" x="105" y="615.8926">`$genart.setParams({...})`</text><line style="stroke:#181818;stroke-width:1.0;" x1="635.5" x2="677.5" y1="649.9453" y2="649.9453"/><line style="stroke:#181818;stroke-width:1.0;" x1="677.5" x2="677.5" y1="649.9453" y2="662.9453"/><line style="stroke:#181818;stroke-width:1.0;" x1="636.5" x2="677.5" y1="662.9453" y2="662.9453"/><polygon fill="#181818" points="646.5,658.9453,636.5,662.9453,646.5,666.9453,642.5,662.9453" style="stroke:#181818;stroke-width:1.0;"/><text fill="#000000" font-family="sans-serif" font-size="13" font-weight="bold" lengthAdjust="spacing" textLength="30" x="642.5" y="645.2031">1.13</text><text fill="#000000" font-family="sans-serif" font-size="13" lengthAdjust="spacing" textLength="140" x="676.5" y="645.2031">Validate params specs</text><path d="M828,637.1348 L828,662.1348 L1006,662.1348 L1006,647.1348 L996,637.1348 L828,637.1348 " fill="#FEFFDD" style="stroke:#181818;stroke-width:0.5;"/><path d="M996,637.1348 L996,647.1348 L1006,647.1348 L996,637.1348 " fill="#FEFFDD" style="stroke:#181818;stroke-width:0.5;"/><text fill="#000000" font-family="sans-serif" font-size="13" lengthAdjust="spacing" textLength="157" x="834" y="654.7031">Ensure valid param types</text><line style="stroke:#181818;stroke-width:1.0;" x1="635.5" x2="677.5" y1="692.2559" y2="692.2559"/><line style="stroke:#181818;stroke-width:1.0;" x1="677.5" x2="677.5" y1="692.2559" y2="705.2559"/><line style="stroke:#181818;stroke-width:1.0;" x1="636.5" x2="677.5" y1="705.2559" y2="705.2559"/><polygon fill="#181818" points="646.5,701.2559,636.5,705.2559,646.5,709.2559,642.5,705.2559" style="stroke:#181818;stroke-width:1.0;"/><text fill="#000000" font-family="sans-serif" font-size="13" font-weight="bold" lengthAdjust="spacing" textLength="30" x="642.5" y="687.5137">1.14</text><text fill="#000000" font-family="sans-serif" font-size="13" lengthAdjust="spacing" textLength="171" x="676.5" y="687.5137">Add missing default values</text><polygon fill="#181818" points="882.5,730.5664,892.5,734.5664,882.5,738.5664,886.5,734.5664" style="stroke:#181818;stroke-width:1.0;"/><line style="stroke:#181818;stroke-width:1.0;" x1="635.5" x2="888.5" y1="734.5664" y2="734.5664"/><text fill="#000000" font-family="sans-serif" font-size="13" font-weight="bold" lengthAdjust="spacing" textLength="30" x="642.5" y="729.8242">1.15</text><text fill="#000000" font-family="sans-serif" font-size="13" lengthAdjust="spacing" textLength="156" x="676.5" y="729.8242">Update/augment params</text><line style="stroke:#181818;stroke-width:1.0;" x1="904.5" x2="946.5" y1="768.0322" y2="768.0322"/><line style="stroke:#181818;stroke-width:1.0;" x1="946.5" x2="946.5" y1="768.0322" y2="781.0322"/><line style="stroke:#181818;stroke-width:1.0;" x1="905.5" x2="946.5" y1="781.0322" y2="781.0322"/><polygon fill="#181818" points="915.5,777.0322,905.5,781.0322,915.5,785.0322,911.5,781.0322" style="stroke:#181818;stroke-width:1.0;"/><text fill="#000000" font-family="sans-serif" font-size="13" font-weight="bold" lengthAdjust="spacing" textLength="30" x="911.5" y="763.29">1.16</text><text fill="#000000" font-family="sans-serif" font-size="13" lengthAdjust="spacing" textLength="131" x="945.5" y="763.29">Load &amp; parse params</text><path d="M1088,747.5664 L1088,787.5664 L1265,787.5664 L1265,757.5664 L1255,747.5664 L1088,747.5664 " fill="#FEFFDD" style="stroke:#181818;stroke-width:0.5;"/><path d="M1255,747.5664 L1255,757.5664 L1265,757.5664 L1255,747.5664 " fill="#FEFFDD" style="stroke:#181818;stroke-width:0.5;"/><text fill="#000000" font-family="sans-serif" font-size="13" lengthAdjust="spacing" textLength="151" x="1094" y="765.1348">source param values via</text><text fill="#000000" font-family="sans-serif" font-size="13" lengthAdjust="spacing" textLength="156" x="1094" y="780.4453">platform-specific means</text><polygon fill="#181818" points="646.5,810.498,636.5,814.498,646.5,818.498,642.5,814.498" style="stroke:#181818;stroke-width:1.0;"/><line style="stroke:#181818;stroke-width:1.0;stroke-dasharray:2.0,2.0;" x1="640.5" x2="898.5" y1="814.498" y2="814.498"/><text fill="#000000" font-family="sans-serif" font-size="13" font-weight="bold" lengthAdjust="spacing" textLength="30" x="652.5" y="809.7559">1.17</text><text fill="#000000" font-family="sans-serif" font-size="13" lengthAdjust="spacing" textLength="82" x="686.5" y="809.7559">Param values</text><line style="stroke:#181818;stroke-width:1.0;" x1="635.5" x2="677.5" y1="843.8086" y2="843.8086"/><line style="stroke:#181818;stroke-width:1.0;" x1="677.5" x2="677.5" y1="843.8086" y2="856.8086"/><line style="stroke:#181818;stroke-width:1.0;" x1="636.5" x2="677.5" y1="856.8086" y2="856.8086"/><polygon fill="#181818" points="646.5,852.8086,636.5,856.8086,646.5,860.8086,642.5,856.8086" style="stroke:#181818;stroke-width:1.0;"/><text fill="#000000" font-family="sans-serif" font-size="13" font-weight="bold" lengthAdjust="spacing" textLength="30" x="642.5" y="839.0664">1.18</text><text fill="#000000" font-family="sans-serif" font-size="13" lengthAdjust="spacing" textLength="206" x="676.5" y="839.0664">Validate &amp; apply param overrides</text><line style="stroke:#181818;stroke-width:1.0;stroke-dasharray:2.0,2.0;" x1="635.5" x2="677.5" y1="886.1191" y2="886.1191"/><line style="stroke:#181818;stroke-width:1.0;stroke-dasharray:2.0,2.0;" x1="677.5" x2="677.5" y1="886.1191" y2="899.1191"/><line style="stroke:#181818;stroke-width:1.0;stroke-dasharray:2.0,2.0;" x1="636.5" x2="677.5" y1="899.1191" y2="899.1191"/><line style="stroke:#181818;stroke-width:1.0;" x1="636.5" x2="646.5" y1="899.1191" y2="895.1191"/><line style="stroke:#181818;stroke-width:1.0;" x1="636.5" x2="646.5" y1="899.1191" y2="903.1191"/><text fill="#000000" font-family="sans-serif" font-size="13" font-weight="bold" lengthAdjust="spacing" textLength="30" x="642.5" y="881.377">1.19</text><text fill="#000000" font-family="sans-serif" font-size="13" lengthAdjust="spacing" textLength="216" x="676.5" y="881.377">Emit `genart:setparams` message</text><path d="M904,873.3086 L904,898.3086 L1127,898.3086 L1127,883.3086 L1117,873.3086 L904,873.3086 " fill="#FEFFDD" style="stroke:#181818;stroke-width:0.5;"/><path d="M1117,873.3086 L1117,883.3086 L1127,883.3086 L1117,873.3086 " fill="#FEFFDD" style="stroke:#181818;stroke-width:0.5;"/><text fill="#000000" font-family="sans-serif" font-size="13" lengthAdjust="spacing" textLength="202" x="910" y="890.877">Sent to current &amp; parent window</text><polygon fill="#181818" points="306.5,935.085,296.5,939.085,306.5,943.085,302.5,939.085" style="stroke:#181818;stroke-width:1.0;"/><line style="stroke:#181818;stroke-width:1.0;stroke-dasharray:2.0,2.0;" x1="300.5" x2="634.5" y1="939.085" y2="939.085"/><text fill="#000000" font-family="sans-serif" font-size="13" font-weight="bold" lengthAdjust="spacing" textLength="30" x="312.5" y="934.3428">1.20</text><text fill="#000000" font-family="sans-serif" font-size="13" lengthAdjust="spacing" textLength="197" x="346.5" y="934.3428">Typesafe param getter function</text><path d="M90,912.1191 L90,952.1191 L280,952.1191 L280,922.1191 L270,912.1191 L90,912.1191 " fill="#FEFFDD" style="stroke:#181818;stroke-width:0.5;"/><path d="M270,912.1191 L270,922.1191 L280,922.1191 L270,912.1191 " fill="#FEFFDD" style="stroke:#181818;stroke-width:0.5;"/><text fill="#000000" font-family="sans-serif" font-size="13" lengthAdjust="spacing" textLength="169" x="96" y="929.6875">ArtPiece uses this function</text><text fill="#000000" font-family="sans-serif" font-size="13" lengthAdjust="spacing" textLength="144" x="96" y="944.998">to obtain param values</text><polygon fill="#181818" points="623.5,975.0508,633.5,979.0508,623.5,983.0508,627.5,979.0508" style="stroke:#181818;stroke-width:1.0;"/><line style="stroke:#181818;stroke-width:1.0;" x1="295.5" x2="629.5" y1="979.0508" y2="979.0508"/><text fill="#000000" font-family="sans-serif" font-size="13" font-weight="bold" lengthAdjust="spacing" textLength="30" x="302.5" y="974.3086">1.21</text><text fill="#000000" font-family="sans-serif" font-size="13" lengthAdjust="spacing" textLength="139" x="336.5" y="974.3086">Request screen config</text><polygon fill="#181818" points="887.5,1007.3613,897.5,1011.3613,887.5,1015.3613,891.5,1011.3613" style="stroke:#181818;stroke-width:1.0;"/><line style="stroke:#181818;stroke-width:1.0;" x1="635.5" x2="893.5" y1="1011.3613" y2="1011.3613"/><text fill="#000000" font-family="sans-serif" font-size="13" font-weight="bold" lengthAdjust="spacing" textLength="30" x="642.5" y="1006.6191">1.22</text><text fill="#000000" font-family="sans-serif" font-size="13" lengthAdjust="spacing" textLength="139" x="676.5" y="1006.6191">Request screen config</text><path d="M904,992.0508 L904,1017.0508 L1099,1017.0508 L1099,1002.0508 L1089,992.0508 L904,992.0508 " fill="#FEFFDD" style="stroke:#181818;stroke-width:0.5;"/><path d="M1089,992.0508 L1089,1002.0508 L1099,1002.0508 L1089,992.0508 " fill="#FEFFDD" style="stroke:#181818;stroke-width:0.5;"/><text fill="#000000" font-family="sans-serif" font-size="13" lengthAdjust="spacing" textLength="174" x="910" y="1009.6191">optionally define resolution</text><polygon fill="#181818" points="646.5,1039.6719,636.5,1043.6719,646.5,1047.6719,642.5,1043.6719" style="stroke:#181818;stroke-width:1.0;"/><line style="stroke:#181818;stroke-width:1.0;stroke-dasharray:2.0,2.0;" x1="640.5" x2="898.5" y1="1043.6719" y2="1043.6719"/><text fill="#000000" font-family="sans-serif" font-size="13" font-weight="bold" lengthAdjust="spacing" textLength="30" x="652.5" y="1038.9297">1.23</text><text fill="#000000" font-family="sans-serif" font-size="13" lengthAdjust="spacing" textLength="42" x="686.5" y="1038.9297">Config</text><polygon fill="#181818" points="306.5,1068.9824,296.5,1072.9824,306.5,1076.9824,302.5,1072.9824" style="stroke:#181818;stroke-width:1.0;"/><line style="stroke:#181818;stroke-width:1.0;stroke-dasharray:2.0,2.0;" x1="300.5" x2="634.5" y1="1072.9824" y2="1072.9824"/><text fill="#000000" font-family="sans-serif" font-size="13" font-weight="bold" lengthAdjust="spacing" textLength="30" x="312.5" y="1068.2402">1.24</text><text fill="#000000" font-family="sans-serif" font-size="13" lengthAdjust="spacing" textLength="42" x="346.5" y="1068.2402">Config</text><line style="stroke:#181818;stroke-width:1.0;" x1="295.5" x2="337.5" y1="1102.293" y2="1102.293"/><line style="stroke:#181818;stroke-width:1.0;" x1="337.5" x2="337.5" y1="1102.293" y2="1115.293"/><line style="stroke:#181818;stroke-width:1.0;" x1="296.5" x2="337.5" y1="1115.293" y2="1115.293"/><polygon fill="#181818" points="306.5,1111.293,296.5,1115.293,306.5,1119.293,302.5,1115.293" style="stroke:#181818;stroke-width:1.0;"/><text fill="#000000" font-family="sans-serif" font-size="13" font-weight="bold" lengthAdjust="spacing" textLength="30" x="302.5" y="1097.5508">1.25</text><text fill="#000000" font-family="sans-serif" font-size="13" lengthAdjust="spacing" textLength="54" x="336.5" y="1097.5508">Initialize</text><polygon fill="#181818" points="618.5,1140.6035,628.5,1144.6035,618.5,1148.6035,622.5,1144.6035" style="stroke:#181818;stroke-width:1.0;"/><line style="stroke:#181818;stroke-width:1.0;" x1="295.5" x2="624.5" y1="1144.6035" y2="1144.6035"/><text fill="#000000" font-family="sans-serif" font-size="13" font-weight="bold" lengthAdjust="spacing" textLength="30" x="302.5" y="1139.8613">1.26</text><text fill="#000000" font-family="sans-serif" font-size="13" lengthAdjust="spacing" textLength="101" x="336.5" y="1139.8613">Get param value</text><line style="stroke:#181818;stroke-width:1.0;" x1="640.5" x2="682.5" y1="1173.9141" y2="1173.9141"/><line style="stroke:#181818;stroke-width:1.0;" x1="682.5" x2="682.5" y1="1173.9141" y2="1186.9141"/><line style="stroke:#181818;stroke-width:1.0;" x1="641.5" x2="682.5" y1="1186.9141" y2="1186.9141"/><polygon fill="#181818" points="651.5,1182.9141,641.5,1186.9141,651.5,1190.9141,647.5,1186.9141" style="stroke:#181818;stroke-width:1.0;"/><text fill="#000000" font-family="sans-serif" font-size="13" font-weight="bold" lengthAdjust="spacing" textLength="30" x="647.5" y="1169.1719">1.27</text><text fill="#000000" font-family="sans-serif" font-size="13" lengthAdjust="spacing" textLength="147" x="681.5" y="1169.1719">Delegate to param impl</text><polygon fill="#181818" points="306.5,1212.2246,296.5,1216.2246,306.5,1220.2246,302.5,1216.2246" style="stroke:#181818;stroke-width:1.0;"/><line style="stroke:#181818;stroke-width:1.0;stroke-dasharray:2.0,2.0;" x1="300.5" x2="634.5" y1="1216.2246" y2="1216.2246"/><text fill="#000000" font-family="sans-serif" font-size="13" font-weight="bold" lengthAdjust="spacing" textLength="30" x="312.5" y="1211.4824">1.28</text><text fill="#000000" font-family="sans-serif" font-size="13" lengthAdjust="spacing" textLength="75" x="346.5" y="1211.4824">Param value</text><rect fill="#EEEEEE" height="3" style="stroke:#EEEEEE;stroke-width:1.0;" width="1280.5" x="0" y="1244.8799"/><line style="stroke:#000000;stroke-width:1.0;" x1="0" x2="1280.5" y1="1244.8799" y2="1244.8799"/><line style="stroke:#000000;stroke-width:1.0;" x1="0" x2="1280.5" y1="1247.8799" y2="1247.8799"/><rect fill="#EEEEEE" height="23.3105" style="stroke:#000000;stroke-width:2.0;" width="121" x="579.75" y="1234.2246"/><text fill="#000000" font-family="sans-serif" font-size="13" font-weight="bold" lengthAdjust="spacing" textLength="103" x="585.75" y="1250.793">Animation loop</text><polygon fill="#181818" points="623.5,1284.8457,633.5,1288.8457,623.5,1292.8457,627.5,1288.8457" style="stroke:#181818;stroke-width:1.0;"/><line style="stroke:#181818;stroke-width:1.0;" x1="295.5" x2="629.5" y1="1288.8457" y2="1288.8457"/><text fill="#000000" font-family="sans-serif" font-size="13" font-weight="bold" lengthAdjust="spacing" textLength="30" x="302.5" y="1284.1035">1.29</text><text fill="#000000" font-family="sans-serif" font-size="13" lengthAdjust="spacing" textLength="192" x="336.5" y="1284.1035">Register update/draw function</text><polygon fill="#181818" points="1076.5,1314.1563,1086.5,1318.1563,1076.5,1322.1563,1080.5,1318.1563" style="stroke:#181818;stroke-width:1.0;"/><line style="stroke:#181818;stroke-width:1.0;" x1="640.5" x2="1082.5" y1="1318.1563" y2="1318.1563"/><text fill="#000000" font-family="sans-serif" font-size="13" font-weight="bold" lengthAdjust="spacing" textLength="30" x="647.5" y="1313.4141">1.30</text><text fill="#000000" font-family="sans-serif" font-size="13" lengthAdjust="spacing" textLength="143" x="681.5" y="1313.4141">Start (reset timestamp)</text><path d="M245.5,1333.1563 L319.5,1333.1563 L319.5,1340.4668 L309.5,1350.4668 L245.5,1350.4668 L245.5,1333.1563 " fill="#EEEEEE" style="stroke:#000000;stroke-width:1.5;"/><rect fill="none" height="206.1738" style="stroke:#000000;stroke-width:1.5;" width="912.5" x="245.5" y="1333.1563"/><text fill="#000000" font-family="sans-serif" font-size="13" font-weight="bold" lengthAdjust="spacing" textLength="29" x="260.5" y="1346.7246">loop</text><text fill="#000000" font-family="sans-serif" font-size="11" font-weight="bold" lengthAdjust="spacing" textLength="95" x="334.5" y="1345.791">[Animation loop]</text><polygon fill="#181818" points="1076.5,1367.7773,1086.5,1371.7773,1076.5,1375.7773,1080.5,1371.7773" style="stroke:#181818;stroke-width:1.0;"/><line style="stroke:#181818;stroke-width:1.0;" x1="640.5" x2="1082.5" y1="1371.7773" y2="1371.7773"/><text fill="#000000" font-family="sans-serif" font-size="13" font-weight="bold" lengthAdjust="spacing" textLength="30" x="647.5" y="1367.0352">1.31</text><text fill="#000000" font-family="sans-serif" font-size="13" lengthAdjust="spacing" textLength="121" x="681.5" y="1367.0352">Request timestamp</text><polygon fill="#181818" points="651.5,1397.0879,641.5,1401.0879,651.5,1405.0879,647.5,1401.0879" style="stroke:#181818;stroke-width:1.0;"/><line style="stroke:#181818;stroke-width:1.0;stroke-dasharray:2.0,2.0;" x1="645.5" x2="1087.5" y1="1401.0879" y2="1401.0879"/><text fill="#000000" font-family="sans-serif" font-size="13" font-weight="bold" lengthAdjust="spacing" textLength="30" x="657.5" y="1396.3457">1.32</text><text fill="#000000" font-family="sans-serif" font-size="13" lengthAdjust="spacing" textLength="70" x="691.5" y="1396.3457">Timestamp</text><polygon fill="#181818" points="301.5,1426.3984,291.5,1430.3984,301.5,1434.3984,297.5,1430.3984" style="stroke:#181818;stroke-width:1.0;"/><line style="stroke:#181818;stroke-width:1.0;" x1="295.5" x2="629.5" y1="1430.3984" y2="1430.3984"/><text fill="#000000" font-family="sans-serif" font-size="13" font-weight="bold" lengthAdjust="spacing" textLength="30" x="307.5" y="1425.6563">1.33</text><text fill="#000000" font-family="sans-serif" font-size="13" lengthAdjust="spacing" textLength="163" x="341.5" y="1425.6563">Call update w/ timestamp</text><line style="stroke:#181818;stroke-width:1.0;" x1="290.5" x2="332.5" y1="1459.709" y2="1459.709"/><line style="stroke:#181818;stroke-width:1.0;" x1="332.5" x2="332.5" y1="1459.709" y2="1472.709"/><line style="stroke:#181818;stroke-width:1.0;" x1="291.5" x2="332.5" y1="1472.709" y2="1472.709"/><polygon fill="#181818" points="301.5,1468.709,291.5,1472.709,301.5,1476.709,297.5,1472.709" style="stroke:#181818;stroke-width:1.0;"/><text fill="#000000" font-family="sans-serif" font-size="13" font-weight="bold" lengthAdjust="spacing" textLength="30" x="297.5" y="1454.9668">1.34</text><text fill="#000000" font-family="sans-serif" font-size="13" lengthAdjust="spacing" textLength="127" x="331.5" y="1454.9668">Generate next frame</text><polygon fill="#181818" points="618.5,1498.0195,628.5,1502.0195,618.5,1506.0195,622.5,1502.0195" style="stroke:#181818;stroke-width:1.0;"/><line style="stroke:#181818;stroke-width:1.0;stroke-dasharray:2.0,2.0;" x1="290.5" x2="624.5" y1="1502.0195" y2="1502.0195"/><text fill="#000000" font-family="sans-serif" font-size="13" font-weight="bold" lengthAdjust="spacing" textLength="30" x="297.5" y="1497.2773">1.35</text><text fill="#000000" font-family="sans-serif" font-size="13" lengthAdjust="spacing" textLength="282" x="331.5" y="1497.2773">Notify screen capture (once, after X seconds)</text><polygon fill="#181818" points="887.5,1527.3301,897.5,1531.3301,887.5,1535.3301,891.5,1531.3301" style="stroke:#181818;stroke-width:1.0;"/><line style="stroke:#181818;stroke-width:1.0;" x1="640.5" x2="893.5" y1="1531.3301" y2="1531.3301"/><text fill="#000000" font-family="sans-serif" font-size="13" font-weight="bold" lengthAdjust="spacing" textLength="30" x="647.5" y="1526.5879">1.36</text><text fill="#000000" font-family="sans-serif" font-size="13" lengthAdjust="spacing" textLength="140" x="681.5" y="1526.5879">Handle screen capture</text><!--SRC=[dLRVRzis47wM_efx6087Q9pbDK0AU6kM5cWB8ycsFlJ1Z7HIYKaaHr9slM7_- -uaKIPbkolsP5dtWzzzzzrHNle6OMKzc4RiqO9KqalHoB-4brhbelDQTUqBMMwMDxdxGoeZh6Z1Y1e_25jB1JS_vZczzBAGHYWFFrczSsYJTtJ2McA1wSlrk-J_kX6-qhPTbSBuMO9dsKfLhwtUof9CkIYyt0gFqsdPtHqyUOhe3DpTvNas6k3gTV21MtYlHGbldp-yXzqrFA3YoWa6kC9AuvEW6PeGRCRN84QKXnWAIc66cA9pNhVWUoEOK4IcD1LWPVs5JiwqOSP5ymfUzb1Y9Rh6G-VGaMtZaxoFgryMbviyGrK2vqXm1wh3uOARsxy8HKxSSGEoZEldEFgvXNUX_vJqu3ZlJ9RDsJb9s24PB49vb_yZUFtuyO72UheQh3nPdn1BBAzB96UYHZfIolTcVa8F-1MBZX51gqkS9QUGFLp3sk9MuewUxal9BPfrzrI_pvLy6jl0-IFMX9_UJ9BAIZpFVMJZ1iRz35EMPOtMXdwoIGsfCduNqWDb3KU2xJ7OOUepLbO-2-wXli6Y4HRXOWoWo64VE8E5YsdampS_rAX8Vqk7VirkRl7tShdyXxKRYJTLu6_4NidLz8bTchaV5dAwLwuZ65ls7H7ulUbd9KcsAajefNCyTs6cAAYBFOy5ygjX0DUYgrkatJC0oRyz4DydlNuYBpYZ2mLoRB88iipfpXQZVOGBMobwMzW_LyoBh6G1BGhLPuaOFKOpKRAEilw7qiuqvWA4CSr-nAUtQ2sfVsBqwdM8k6z9PPj10xUaWQ7W3I5sZkwFULEVc6olQLrQouyzJ_omawhKkqF-MCdFt7PH1RPgz5nkrQbYb78ys5CSxrNmNwIRF3yhEbc_U44tManyVd8E7l5FidbUgOWA2gqgMNzBKkS24WB2mcZw2q0gig3JJJTMShwdFoVdfmGTRATNGRBnZojzG1_p4G_1S7sa8dc33TPi93Q7CDcQPd9BZrudUO_s6b_fAoNRVYa1RpI-sHEGsMo3TiFabbRiOWsC48-sTV_100jYcQgaEvOw95fpcUxOi5IFBiuUKGemukFei221wHnsdbyf4v7FiLUWEEeggMIibZzbafnd6asVEsZPN-5NMlv4FQRUqzaVjPVLVj8ggOsNxKAh0b-1g9ZeJ-2GH5owomZViUpV2bKsECiKxfTvmwF_uQlkNm00]--></g></svg>