<?xml version="1.0" encoding="us-ascii" standalone="no"?><svg xmlns="http://www.w3.org/2000/svg" xmlns:xlink="http://www.w3.org/1999/xlink" contentStyleType="text/css" height="1528px" preserveAspectRatio="none" style="width:1277px;height:1528px;background:#FFFFFF;" version="1.1" viewBox="0 0 1277 1528" width="1277px" zoomAndPan="magnify"><defs/><g><text fill="#000000" font-family="sans-serif" font-size="14" font-weight="bold" lengthAdjust="spacing" textLength="169" x="550.25" y="28.5352">Art player initialization</text><rect fill="#FFFFFF" height="1398.7324" style="stroke:#181818;stroke-width:1.0;" width="10" x="34.5" y="83.9766"/><rect fill="#FFFFFF" height="742.832" style="stroke:#181818;stroke-width:1.0;" width="10" x="285.5" y="511.7031"/><rect fill="#FFFFFF" height="240.8633" style="stroke:#181818;stroke-width:1.0;" width="10" x="630.5" y="270.8398"/><rect fill="#FFFFFF" height="71.6211" style="stroke:#181818;stroke-width:1.0;" width="10" x="630.5" y="1080.9824"/><rect fill="#FFFFFF" height="228.1738" style="stroke:#181818;stroke-width:1.0;" width="10" x="630.5" y="1254.5352"/><rect fill="#FFFFFF" height="203.5527" style="stroke:#181818;stroke-width:1.0;" width="10" x="884.5" y="308.1504"/><rect fill="#FFFFFF" height="79.9316" style="stroke:#181818;stroke-width:1.0;" width="10" x="884.5" y="734.5664"/><rect fill="none" height="59.6211" style="stroke:#000000;stroke-width:1.5;" width="280" x="245.5" y="526.7031"/><rect fill="none" height="206.1738" style="stroke:#000000;stroke-width:1.5;" width="902.5" x="245.5" y="1269.5352"/><line style="stroke:#181818;stroke-width:0.5;stroke-dasharray:5.0,5.0;" x1="39" x2="39" y1="73.9766" y2="1492.709"/><line style="stroke:#181818;stroke-width:0.5;stroke-dasharray:5.0,5.0;" x1="290.5" x2="290.5" y1="73.9766" y2="1492.709"/><line style="stroke:#181818;stroke-width:0.5;stroke-dasharray:5.0,5.0;" x1="635.5" x2="635.5" y1="73.9766" y2="1492.709"/><line style="stroke:#181818;stroke-width:0.5;stroke-dasharray:5.0,5.0;" x1="889" x2="889" y1="73.9766" y2="1492.709"/><line style="stroke:#181818;stroke-width:0.5;stroke-dasharray:5.0,5.0;" x1="1078" x2="1078" y1="73.9766" y2="1492.709"/><rect fill="#E2E2F0" height="30.4883" rx="2.5" ry="2.5" style="stroke:#181818;stroke-width:0.5;" width="69" x="5" y="42.4883"/><text fill="#000000" font-family="sans-serif" font-size="14" lengthAdjust="spacing" textLength="55" x="12" y="63.0234">Browser</text><rect fill="#E2E2F0" height="30.4883" rx="2.5" ry="2.5" style="stroke:#181818;stroke-width:0.5;" width="69" x="5" y="1491.709"/><text fill="#000000" font-family="sans-serif" font-size="14" lengthAdjust="spacing" textLength="55" x="12" y="1512.2441">Browser</text><rect fill="#E2E2F0" height="30.4883" rx="2.5" ry="2.5" style="stroke:#181818;stroke-width:0.5;" width="70" x="255.5" y="42.4883"/><text fill="#000000" font-family="sans-serif" font-size="14" lengthAdjust="spacing" textLength="56" x="262.5" y="63.0234">ArtPiece</text><rect fill="#E2E2F0" height="30.4883" rx="2.5" ry="2.5" style="stroke:#181818;stroke-width:0.5;" width="70" x="255.5" y="1491.709"/><text fill="#000000" font-family="sans-serif" font-size="14" lengthAdjust="spacing" textLength="56" x="262.5" y="1512.2441">ArtPiece</text><rect fill="#E2E2F0" height="30.4883" rx="2.5" ry="2.5" style="stroke:#181818;stroke-width:0.5;" width="36" x="617.5" y="42.4883"/><text fill="#000000" font-family="sans-serif" font-size="14" lengthAdjust="spacing" textLength="22" x="624.5" y="63.0234">API</text><rect fill="#E2E2F0" height="30.4883" rx="2.5" ry="2.5" style="stroke:#181818;stroke-width:0.5;" width="36" x="617.5" y="1491.709"/><text fill="#000000" font-family="sans-serif" font-size="14" lengthAdjust="spacing" textLength="22" x="624.5" y="1512.2441">API</text><rect fill="#E2E2F0" height="30.4883" rx="2.5" ry="2.5" style="stroke:#181818;stroke-width:0.5;" width="127" x="826" y="42.4883"/><text fill="#000000" font-family="sans-serif" font-size="14" lengthAdjust="spacing" textLength="113" x="833" y="63.0234">PlatformAdapter</text><rect fill="#E2E2F0" height="30.4883" rx="2.5" ry="2.5" style="stroke:#181818;stroke-width:0.5;" width="127" x="826" y="1491.709"/><text fill="#000000" font-family="sans-serif" font-size="14" lengthAdjust="spacing" textLength="113" x="833" y="1512.2441">PlatformAdapter</text><rect fill="#E2E2F0" height="30.4883" rx="2.5" ry="2.5" style="stroke:#181818;stroke-width:0.5;" width="119" x="1019" y="42.4883"/><text fill="#000000" font-family="sans-serif" font-size="14" lengthAdjust="spacing" textLength="105" x="1026" y="63.0234">TimingProvider</text><rect fill="#E2E2F0" height="30.4883" rx="2.5" ry="2.5" style="stroke:#181818;stroke-width:0.5;" width="119" x="1019" y="1491.709"/><text fill="#000000" font-family="sans-serif" font-size="14" lengthAdjust="spacing" textLength="105" x="1026" y="1512.2441">TimingProvider</text><rect fill="#FFFFFF" height="1398.7324" style="stroke:#181818;stroke-width:1.0;" width="10" x="34.5" y="83.9766"/><rect fill="#FFFFFF" height="742.832" style="stroke:#181818;stroke-width:1.0;" width="10" x="285.5" y="511.7031"/><rect fill="#FFFFFF" height="240.8633" style="stroke:#181818;stroke-width:1.0;" width="10" x="630.5" y="270.8398"/><rect fill="#FFFFFF" height="71.6211" style="stroke:#181818;stroke-width:1.0;" width="10" x="630.5" y="1080.9824"/><rect fill="#FFFFFF" height="228.1738" style="stroke:#181818;stroke-width:1.0;" width="10" x="630.5" y="1254.5352"/><rect fill="#FFFFFF" height="203.5527" style="stroke:#181818;stroke-width:1.0;" width="10" x="884.5" y="308.1504"/><rect fill="#FFFFFF" height="79.9316" style="stroke:#181818;stroke-width:1.0;" width="10" x="884.5" y="734.5664"/><rect fill="#EEEEEE" height="3" style="stroke:#EEEEEE;stroke-width:1.0;" width="1270.5" x="0" y="104.6318"/><line style="stroke:#000000;stroke-width:1.0;" x1="0" x2="1270.5" y1="104.6318" y2="104.6318"/><line style="stroke:#000000;stroke-width:1.0;" x1="0" x2="1270.5" y1="107.6318" y2="107.6318"/><rect fill="#EEEEEE" height="23.3105" style="stroke:#000000;stroke-width:2.0;" width="67" x="601.75" y="93.9766"/><text fill="#000000" font-family="sans-serif" font-size="13" font-weight="bold" lengthAdjust="spacing" textLength="49" x="607.75" y="110.5449">Startup</text><line style="stroke:#181818;stroke-width:1.0;" x1="44.5" x2="86.5" y1="148.5977" y2="148.5977"/><line style="stroke:#181818;stroke-width:1.0;" x1="86.5" x2="86.5" y1="148.5977" y2="161.5977"/><line style="stroke:#181818;stroke-width:1.0;" x1="45.5" x2="86.5" y1="161.5977" y2="161.5977"/><polygon fill="#181818" points="55.5,157.5977,45.5,161.5977,55.5,165.5977,51.5,161.5977" style="stroke:#181818;stroke-width:1.0;"/><text fill="#000000" font-family="sans-serif" font-size="13" font-weight="bold" lengthAdjust="spacing" textLength="21" x="51.5" y="143.8555">1.1</text><text fill="#000000" font-family="sans-serif" font-size="13" lengthAdjust="spacing" textLength="202" x="76.5" y="143.8555">Load HTML w/ GenArt API script</text><polygon fill="#181818" points="877.5,186.9082,887.5,190.9082,877.5,194.9082,881.5,190.9082" style="stroke:#181818;stroke-width:1.0;"/><line style="stroke:#181818;stroke-width:1.0;" x1="44.5" x2="883.5" y1="190.9082" y2="190.9082"/><text fill="#000000" font-family="sans-serif" font-size="13" font-weight="bold" lengthAdjust="spacing" textLength="21" x="51.5" y="186.166">1.2</text><text fill="#000000" font-family="sans-serif" font-size="13" lengthAdjust="spacing" textLength="139" x="76.5" y="186.166">Load platform adapter</text><polygon fill="#181818" points="1066.5,226.874,1076.5,230.874,1066.5,234.874,1070.5,230.874" style="stroke:#181818;stroke-width:1.0;"/><line style="stroke:#181818;stroke-width:1.0;stroke-dasharray:2.0,2.0;" x1="44.5" x2="1072.5" y1="230.874" y2="230.874"/><text fill="#000000" font-family="sans-serif" font-size="13" font-weight="bold" lengthAdjust="spacing" textLength="21" x="51.5" y="226.1318">1.3</text><text fill="#000000" font-family="sans-serif" font-size="13" lengthAdjust="spacing" textLength="182" x="76.5" y="226.1318">Load custom timing provider</text><path d="M1083,203.9082 L1083,243.9082 L1260,243.9082 L1260,213.9082 L1250,203.9082 L1083,203.9082 " fill="#FEFFDD" style="stroke:#181818;stroke-width:0.5;"/><path d="M1250,203.9082 L1250,213.9082 L1260,213.9082 L1250,203.9082 " fill="#FEFFDD" style="stroke:#181818;stroke-width:0.5;"/><text fill="#000000" font-family="sans-serif" font-size="13" lengthAdjust="spacing" textLength="156" x="1089" y="221.4766">optional, by default uses</text><text fill="#000000" font-family="sans-serif" font-size="13" lengthAdjust="spacing" textLength="140" x="1089" y="236.7871">`timingProviderRAF()`</text><polygon fill="#181818" points="278.5,266.8398,288.5,270.8398,278.5,274.8398,282.5,270.8398" style="stroke:#181818;stroke-width:1.0;"/><line style="stroke:#181818;stroke-width:1.0;" x1="44.5" x2="284.5" y1="270.8398" y2="270.8398"/><text fill="#000000" font-family="sans-serif" font-size="13" font-weight="bold" lengthAdjust="spacing" textLength="21" x="51.5" y="266.0977">1.4</text><text fill="#000000" font-family="sans-serif" font-size="13" lengthAdjust="spacing" textLength="128" x="76.5" y="266.0977">Load art piece script</text><line style="stroke:#181818;stroke-width:1.0;" x1="640.5" x2="687.5" y1="295.1504" y2="295.1504"/><line style="stroke:#181818;stroke-width:1.0;" x1="687.5" x2="687.5" y1="295.1504" y2="308.1504"/><line style="stroke:#181818;stroke-width:1.0;" x1="646.5" x2="687.5" y1="308.1504" y2="308.1504"/><polygon fill="#181818" points="656.5,304.1504,646.5,308.1504,656.5,312.1504,652.5,308.1504" style="stroke:#181818;stroke-width:1.0;"/><text fill="#000000" font-family="sans-serif" font-size="13" font-weight="bold" lengthAdjust="spacing" textLength="21" x="652.5" y="290.4082">1.5</text><text fill="#000000" font-family="sans-serif" font-size="13" lengthAdjust="spacing" textLength="54" x="677.5" y="290.4082">Initialize</text><line style="stroke:#181818;stroke-width:1.0;" x1="894.5" x2="936.5" y1="342.4609" y2="342.4609"/><line style="stroke:#181818;stroke-width:1.0;" x1="936.5" x2="936.5" y1="342.4609" y2="355.4609"/><line style="stroke:#181818;stroke-width:1.0;" x1="895.5" x2="936.5" y1="355.4609" y2="355.4609"/><polygon fill="#181818" points="905.5,351.4609,895.5,355.4609,905.5,359.4609,901.5,355.4609" style="stroke:#181818;stroke-width:1.0;"/><text fill="#000000" font-family="sans-serif" font-size="13" font-weight="bold" lengthAdjust="spacing" textLength="21" x="901.5" y="337.7188">1.6</text><text fill="#000000" font-family="sans-serif" font-size="13" lengthAdjust="spacing" textLength="118" x="926.5" y="337.7188">Initialize (optional)</text><line style="stroke:#181818;stroke-width:1.0;" x1="894.5" x2="936.5" y1="384.7715" y2="384.7715"/><line style="stroke:#181818;stroke-width:1.0;" x1="936.5" x2="936.5" y1="384.7715" y2="397.7715"/><line style="stroke:#181818;stroke-width:1.0;" x1="895.5" x2="936.5" y1="397.7715" y2="397.7715"/><polygon fill="#181818" points="905.5,393.7715,895.5,397.7715,905.5,401.7715,901.5,397.7715" style="stroke:#181818;stroke-width:1.0;"/><text fill="#000000" font-family="sans-serif" font-size="13" font-weight="bold" lengthAdjust="spacing" textLength="21" x="901.5" y="380.0293">1.7</text><text fill="#000000" font-family="sans-serif" font-size="13" lengthAdjust="spacing" textLength="92" x="926.5" y="380.0293">Initialize PRNG</text><path d="M724,371.9609 L724,396.9609 L879,396.9609 L879,381.9609 L869,371.9609 L724,371.9609 " fill="#FEFFDD" style="stroke:#181818;stroke-width:0.5;"/><path d="M869,371.9609 L869,381.9609 L879,381.9609 L869,371.9609 " fill="#FEFFDD" style="stroke:#181818;stroke-width:0.5;"/><text fill="#000000" font-family="sans-serif" font-size="13" lengthAdjust="spacing" textLength="134" x="730" y="389.5293">Seeded/deterministic</text><line style="stroke:#181818;stroke-width:1.0;" x1="894.5" x2="936.5" y1="427.082" y2="427.082"/><line style="stroke:#181818;stroke-width:1.0;" x1="936.5" x2="936.5" y1="427.082" y2="440.082"/><line style="stroke:#181818;stroke-width:1.0;" x1="895.5" x2="936.5" y1="440.082" y2="440.082"/><polygon fill="#181818" points="905.5,436.082,895.5,440.082,905.5,444.082,901.5,440.082" style="stroke:#181818;stroke-width:1.0;"/><text fill="#000000" font-family="sans-serif" font-size="13" font-weight="bold" lengthAdjust="spacing" textLength="21" x="901.5" y="422.3398">1.8</text><text fill="#000000" font-family="sans-serif" font-size="13" lengthAdjust="spacing" textLength="124" x="926.5" y="422.3398">Set execution mode</text><path d="M732,414.2715 L732,439.2715 L879,439.2715 L879,424.2715 L869,414.2715 L732,414.2715 " fill="#FEFFDD" style="stroke:#181818;stroke-width:0.5;"/><path d="M869,414.2715 L869,424.2715 L879,424.2715 L869,414.2715 " fill="#FEFFDD" style="stroke:#181818;stroke-width:0.5;"/><text fill="#000000" font-family="sans-serif" font-size="13" lengthAdjust="spacing" textLength="126" x="738" y="431.8398">Play / Preview / Edit</text><line style="stroke:#181818;stroke-width:1.0;" x1="1078.5" x2="1120.5" y1="469.3926" y2="469.3926"/><line style="stroke:#181818;stroke-width:1.0;" x1="1120.5" x2="1120.5" y1="469.3926" y2="482.3926"/><line style="stroke:#181818;stroke-width:1.0;" x1="1079.5" x2="1120.5" y1="482.3926" y2="482.3926"/><polygon fill="#181818" points="1089.5,478.3926,1079.5,482.3926,1089.5,486.3926,1085.5,482.3926" style="stroke:#181818;stroke-width:1.0;"/><text fill="#000000" font-family="sans-serif" font-size="13" font-weight="bold" lengthAdjust="spacing" textLength="21" x="1085.5" y="464.6504">1.9</text><text fill="#000000" font-family="sans-serif" font-size="13" lengthAdjust="spacing" textLength="118" x="1110.5" y="464.6504">Initialize (optional)</text><polygon fill="#181818" points="646.5,507.7031,636.5,511.7031,646.5,515.7031,642.5,511.7031" style="stroke:#181818;stroke-width:1.0;"/><line style="stroke:#181818;stroke-width:1.0;" x1="640.5" x2="888.5" y1="511.7031" y2="511.7031"/><text fill="#000000" font-family="sans-serif" font-size="13" font-weight="bold" lengthAdjust="spacing" textLength="30" x="652.5" y="506.9609">1.10</text><text fill="#000000" font-family="sans-serif" font-size="13" lengthAdjust="spacing" textLength="102" x="686.5" y="506.9609">Register adapter</text><path d="M245.5,526.7031 L319.5,526.7031 L319.5,534.0137 L309.5,544.0137 L245.5,544.0137 L245.5,526.7031 " fill="#EEEEEE" style="stroke:#000000;stroke-width:1.5;"/><rect fill="none" height="59.6211" style="stroke:#000000;stroke-width:1.5;" width="280" x="245.5" y="526.7031"/><text fill="#000000" font-family="sans-serif" font-size="13" font-weight="bold" lengthAdjust="spacing" textLength="29" x="260.5" y="540.2715">loop</text><line style="stroke:#181818;stroke-width:1.0;" x1="295.5" x2="337.5" y1="565.3242" y2="565.3242"/><line style="stroke:#181818;stroke-width:1.0;" x1="337.5" x2="337.5" y1="565.3242" y2="578.3242"/><line style="stroke:#181818;stroke-width:1.0;" x1="296.5" x2="337.5" y1="578.3242" y2="578.3242"/><polygon fill="#181818" points="306.5,574.3242,296.5,578.3242,306.5,582.3242,302.5,578.3242" style="stroke:#181818;stroke-width:1.0;"/><text fill="#000000" font-family="sans-serif" font-size="13" font-weight="bold" lengthAdjust="spacing" textLength="30" x="302.5" y="560.582">1.11</text><text fill="#000000" font-family="sans-serif" font-size="13" lengthAdjust="spacing" textLength="177" x="336.5" y="560.582">Wait for adapter registration</text><polygon fill="#181818" points="623.5,613.6348,633.5,617.6348,623.5,621.6348,627.5,617.6348" style="stroke:#181818;stroke-width:1.0;"/><line style="stroke:#181818;stroke-width:1.0;" x1="295.5" x2="629.5" y1="617.6348" y2="617.6348"/><text fill="#000000" font-family="sans-serif" font-size="13" font-weight="bold" lengthAdjust="spacing" textLength="30" x="302.5" y="612.8926">1.12</text><text fill="#000000" font-family="sans-serif" font-size="13" lengthAdjust="spacing" textLength="195" x="336.5" y="612.8926">Declare &amp; register param specs</text><path d="M99,598.3242 L99,623.3242 L280,623.3242 L280,608.3242 L270,598.3242 L99,598.3242 " fill="#FEFFDD" style="stroke:#181818;stroke-width:0.5;"/><path d="M270,598.3242 L270,608.3242 L280,608.3242 L270,598.3242 " fill="#FEFFDD" style="stroke:#181818;stroke-width:0.5;"/><text fill="#000000" font-family="sans-serif" font-size="13" lengthAdjust="spacing" textLength="160" x="105" y="615.8926">`$genart.setParams({...})`</text><line style="stroke:#181818;stroke-width:1.0;" x1="635.5" x2="677.5" y1="649.9453" y2="649.9453"/><line style="stroke:#181818;stroke-width:1.0;" x1="677.5" x2="677.5" y1="649.9453" y2="662.9453"/><line style="stroke:#181818;stroke-width:1.0;" x1="636.5" x2="677.5" y1="662.9453" y2="662.9453"/><polygon fill="#181818" points="646.5,658.9453,636.5,662.9453,646.5,666.9453,642.5,662.9453" style="stroke:#181818;stroke-width:1.0;"/><text fill="#000000" font-family="sans-serif" font-size="13" font-weight="bold" lengthAdjust="spacing" textLength="30" x="642.5" y="645.2031">1.13</text><text fill="#000000" font-family="sans-serif" font-size="13" lengthAdjust="spacing" textLength="140" x="676.5" y="645.2031">Validate params specs</text><path d="M828,637.1348 L828,662.1348 L1006,662.1348 L1006,647.1348 L996,637.1348 L828,637.1348 " fill="#FEFFDD" style="stroke:#181818;stroke-width:0.5;"/><path d="M996,637.1348 L996,647.1348 L1006,647.1348 L996,637.1348 " fill="#FEFFDD" style="stroke:#181818;stroke-width:0.5;"/><text fill="#000000" font-family="sans-serif" font-size="13" lengthAdjust="spacing" textLength="157" x="834" y="654.7031">Ensure valid param types</text><line style="stroke:#181818;stroke-width:1.0;" x1="635.5" x2="677.5" y1="692.2559" y2="692.2559"/><line style="stroke:#181818;stroke-width:1.0;" x1="677.5" x2="677.5" y1="692.2559" y2="705.2559"/><line style="stroke:#181818;stroke-width:1.0;" x1="636.5" x2="677.5" y1="705.2559" y2="705.2559"/><polygon fill="#181818" points="646.5,701.2559,636.5,705.2559,646.5,709.2559,642.5,705.2559" style="stroke:#181818;stroke-width:1.0;"/><text fill="#000000" font-family="sans-serif" font-size="13" font-weight="bold" lengthAdjust="spacing" textLength="30" x="642.5" y="687.5137">1.14</text><text fill="#000000" font-family="sans-serif" font-size="13" lengthAdjust="spacing" textLength="171" x="676.5" y="687.5137">Add missing default values</text><polygon fill="#181818" points="872.5,730.5664,882.5,734.5664,872.5,738.5664,876.5,734.5664" style="stroke:#181818;stroke-width:1.0;"/><line style="stroke:#181818;stroke-width:1.0;" x1="635.5" x2="878.5" y1="734.5664" y2="734.5664"/><text fill="#000000" font-family="sans-serif" font-size="13" font-weight="bold" lengthAdjust="spacing" textLength="30" x="642.5" y="729.8242">1.15</text><text fill="#000000" font-family="sans-serif" font-size="13" lengthAdjust="spacing" textLength="156" x="676.5" y="729.8242">Update/augment params</text><line style="stroke:#181818;stroke-width:1.0;" x1="894.5" x2="936.5" y1="768.0322" y2="768.0322"/><line style="stroke:#181818;stroke-width:1.0;" x1="936.5" x2="936.5" y1="768.0322" y2="781.0322"/><line style="stroke:#181818;stroke-width:1.0;" x1="895.5" x2="936.5" y1="781.0322" y2="781.0322"/><polygon fill="#181818" points="905.5,777.0322,895.5,781.0322,905.5,785.0322,901.5,781.0322" style="stroke:#181818;stroke-width:1.0;"/><text fill="#000000" font-family="sans-serif" font-size="13" font-weight="bold" lengthAdjust="spacing" textLength="30" x="901.5" y="763.29">1.16</text><text fill="#000000" font-family="sans-serif" font-size="13" lengthAdjust="spacing" textLength="131" x="935.5" y="763.29">Load &amp; parse params</text><path d="M1078,747.5664 L1078,787.5664 L1255,787.5664 L1255,757.5664 L1245,747.5664 L1078,747.5664 " fill="#FEFFDD" style="stroke:#181818;stroke-width:0.5;"/><path d="M1245,747.5664 L1245,757.5664 L1255,757.5664 L1245,747.5664 " fill="#FEFFDD" style="stroke:#181818;stroke-width:0.5;"/><text fill="#000000" font-family="sans-serif" font-size="13" lengthAdjust="spacing" textLength="151" x="1084" y="765.1348">source param values via</text><text fill="#000000" font-family="sans-serif" font-size="13" lengthAdjust="spacing" textLength="156" x="1084" y="780.4453">platform-specific means</text><polygon fill="#181818" points="646.5,810.498,636.5,814.498,646.5,818.498,642.5,814.498" style="stroke:#181818;stroke-width:1.0;"/><line style="stroke:#181818;stroke-width:1.0;stroke-dasharray:2.0,2.0;" x1="640.5" x2="888.5" y1="814.498" y2="814.498"/><text fill="#000000" font-family="sans-serif" font-size="13" font-weight="bold" lengthAdjust="spacing" textLength="30" x="652.5" y="809.7559">1.17</text><text fill="#000000" font-family="sans-serif" font-size="13" lengthAdjust="spacing" textLength="82" x="686.5" y="809.7559">Param values</text><line style="stroke:#181818;stroke-width:1.0;" x1="635.5" x2="677.5" y1="843.8086" y2="843.8086"/><line style="stroke:#181818;stroke-width:1.0;" x1="677.5" x2="677.5" y1="843.8086" y2="856.8086"/><line style="stroke:#181818;stroke-width:1.0;" x1="636.5" x2="677.5" y1="856.8086" y2="856.8086"/><polygon fill="#181818" points="646.5,852.8086,636.5,856.8086,646.5,860.8086,642.5,856.8086" style="stroke:#181818;stroke-width:1.0;"/><text fill="#000000" font-family="sans-serif" font-size="13" font-weight="bold" lengthAdjust="spacing" textLength="30" x="642.5" y="839.0664">1.18</text><text fill="#000000" font-family="sans-serif" font-size="13" lengthAdjust="spacing" textLength="206" x="676.5" y="839.0664">Validate &amp; apply param overrides</text><polygon fill="#181818" points="306.5,882.1191,296.5,886.1191,306.5,890.1191,302.5,886.1191" style="stroke:#181818;stroke-width:1.0;"/><line style="stroke:#181818;stroke-width:1.0;stroke-dasharray:2.0,2.0;" x1="300.5" x2="634.5" y1="886.1191" y2="886.1191"/><text fill="#000000" font-family="sans-serif" font-size="13" font-weight="bold" lengthAdjust="spacing" textLength="30" x="312.5" y="881.377">1.19</text><text fill="#000000" font-family="sans-serif" font-size="13" lengthAdjust="spacing" textLength="197" x="346.5" y="881.377">Typesafe param getter function</text><polygon fill="#181818" points="623.5,911.4297,633.5,915.4297,623.5,919.4297,627.5,915.4297" style="stroke:#181818;stroke-width:1.0;"/><line style="stroke:#181818;stroke-width:1.0;" x1="295.5" x2="629.5" y1="915.4297" y2="915.4297"/><text fill="#000000" font-family="sans-serif" font-size="13" font-weight="bold" lengthAdjust="spacing" textLength="30" x="302.5" y="910.6875">1.20</text><text fill="#000000" font-family="sans-serif" font-size="13" lengthAdjust="spacing" textLength="139" x="336.5" y="910.6875">Request screen config</text><polygon fill="#181818" points="877.5,943.7402,887.5,947.7402,877.5,951.7402,881.5,947.7402" style="stroke:#181818;stroke-width:1.0;"/><line style="stroke:#181818;stroke-width:1.0;" x1="635.5" x2="883.5" y1="947.7402" y2="947.7402"/><text fill="#000000" font-family="sans-serif" font-size="13" font-weight="bold" lengthAdjust="spacing" textLength="30" x="642.5" y="942.998">1.21</text><text fill="#000000" font-family="sans-serif" font-size="13" lengthAdjust="spacing" textLength="139" x="676.5" y="942.998">Request screen config</text><path d="M894,928.4297 L894,953.4297 L1089,953.4297 L1089,938.4297 L1079,928.4297 L894,928.4297 " fill="#FEFFDD" style="stroke:#181818;stroke-width:0.5;"/><path d="M1079,928.4297 L1079,938.4297 L1089,938.4297 L1079,928.4297 " fill="#FEFFDD" style="stroke:#181818;stroke-width:0.5;"/><text fill="#000000" font-family="sans-serif" font-size="13" lengthAdjust="spacing" textLength="174" x="900" y="945.998">optionally define resolution</text><polygon fill="#181818" points="646.5,976.0508,636.5,980.0508,646.5,984.0508,642.5,980.0508" style="stroke:#181818;stroke-width:1.0;"/><line style="stroke:#181818;stroke-width:1.0;stroke-dasharray:2.0,2.0;" x1="640.5" x2="888.5" y1="980.0508" y2="980.0508"/><text fill="#000000" font-family="sans-serif" font-size="13" font-weight="bold" lengthAdjust="spacing" textLength="30" x="652.5" y="975.3086">1.22</text><text fill="#000000" font-family="sans-serif" font-size="13" lengthAdjust="spacing" textLength="42" x="686.5" y="975.3086">Config</text><polygon fill="#181818" points="306.5,1005.3613,296.5,1009.3613,306.5,1013.3613,302.5,1009.3613" style="stroke:#181818;stroke-width:1.0;"/><line style="stroke:#181818;stroke-width:1.0;stroke-dasharray:2.0,2.0;" x1="300.5" x2="634.5" y1="1009.3613" y2="1009.3613"/><text fill="#000000" font-family="sans-serif" font-size="13" font-weight="bold" lengthAdjust="spacing" textLength="30" x="312.5" y="1004.6191">1.23</text><text fill="#000000" font-family="sans-serif" font-size="13" lengthAdjust="spacing" textLength="42" x="346.5" y="1004.6191">Config</text><line style="stroke:#181818;stroke-width:1.0;" x1="295.5" x2="337.5" y1="1038.6719" y2="1038.6719"/><line style="stroke:#181818;stroke-width:1.0;" x1="337.5" x2="337.5" y1="1038.6719" y2="1051.6719"/><line style="stroke:#181818;stroke-width:1.0;" x1="296.5" x2="337.5" y1="1051.6719" y2="1051.6719"/><polygon fill="#181818" points="306.5,1047.6719,296.5,1051.6719,306.5,1055.6719,302.5,1051.6719" style="stroke:#181818;stroke-width:1.0;"/><text fill="#000000" font-family="sans-serif" font-size="13" font-weight="bold" lengthAdjust="spacing" textLength="30" x="302.5" y="1033.9297">1.24</text><text fill="#000000" font-family="sans-serif" font-size="13" lengthAdjust="spacing" textLength="54" x="336.5" y="1033.9297">Initialize</text><polygon fill="#181818" points="618.5,1076.9824,628.5,1080.9824,618.5,1084.9824,622.5,1080.9824" style="stroke:#181818;stroke-width:1.0;"/><line style="stroke:#181818;stroke-width:1.0;" x1="295.5" x2="624.5" y1="1080.9824" y2="1080.9824"/><text fill="#000000" font-family="sans-serif" font-size="13" font-weight="bold" lengthAdjust="spacing" textLength="30" x="302.5" y="1076.2402">1.25</text><text fill="#000000" font-family="sans-serif" font-size="13" lengthAdjust="spacing" textLength="101" x="336.5" y="1076.2402">Get param value</text><line style="stroke:#181818;stroke-width:1.0;" x1="640.5" x2="682.5" y1="1110.293" y2="1110.293"/><line style="stroke:#181818;stroke-width:1.0;" x1="682.5" x2="682.5" y1="1110.293" y2="1123.293"/><line style="stroke:#181818;stroke-width:1.0;" x1="641.5" x2="682.5" y1="1123.293" y2="1123.293"/><polygon fill="#181818" points="651.5,1119.293,641.5,1123.293,651.5,1127.293,647.5,1123.293" style="stroke:#181818;stroke-width:1.0;"/><text fill="#000000" font-family="sans-serif" font-size="13" font-weight="bold" lengthAdjust="spacing" textLength="30" x="647.5" y="1105.5508">1.26</text><text fill="#000000" font-family="sans-serif" font-size="13" lengthAdjust="spacing" textLength="147" x="681.5" y="1105.5508">Delegate to param impl</text><polygon fill="#181818" points="306.5,1148.6035,296.5,1152.6035,306.5,1156.6035,302.5,1152.6035" style="stroke:#181818;stroke-width:1.0;"/><line style="stroke:#181818;stroke-width:1.0;stroke-dasharray:2.0,2.0;" x1="300.5" x2="634.5" y1="1152.6035" y2="1152.6035"/><text fill="#000000" font-family="sans-serif" font-size="13" font-weight="bold" lengthAdjust="spacing" textLength="30" x="312.5" y="1147.8613">1.27</text><text fill="#000000" font-family="sans-serif" font-size="13" lengthAdjust="spacing" textLength="75" x="346.5" y="1147.8613">Param value</text><rect fill="#EEEEEE" height="3" style="stroke:#EEEEEE;stroke-width:1.0;" width="1270.5" x="0" y="1181.2588"/><line style="stroke:#000000;stroke-width:1.0;" x1="0" x2="1270.5" y1="1181.2588" y2="1181.2588"/><line style="stroke:#000000;stroke-width:1.0;" x1="0" x2="1270.5" y1="1184.2588" y2="1184.2588"/><rect fill="#EEEEEE" height="23.3105" style="stroke:#000000;stroke-width:2.0;" width="121" x="574.75" y="1170.6035"/><text fill="#000000" font-family="sans-serif" font-size="13" font-weight="bold" lengthAdjust="spacing" textLength="103" x="580.75" y="1187.1719">Animation loop</text><polygon fill="#181818" points="623.5,1221.2246,633.5,1225.2246,623.5,1229.2246,627.5,1225.2246" style="stroke:#181818;stroke-width:1.0;"/><line style="stroke:#181818;stroke-width:1.0;" x1="295.5" x2="629.5" y1="1225.2246" y2="1225.2246"/><text fill="#000000" font-family="sans-serif" font-size="13" font-weight="bold" lengthAdjust="spacing" textLength="30" x="302.5" y="1220.4824">1.28</text><text fill="#000000" font-family="sans-serif" font-size="13" lengthAdjust="spacing" textLength="192" x="336.5" y="1220.4824">Register update/draw function</text><polygon fill="#181818" points="1066.5,1250.5352,1076.5,1254.5352,1066.5,1258.5352,1070.5,1254.5352" style="stroke:#181818;stroke-width:1.0;"/><line style="stroke:#181818;stroke-width:1.0;" x1="640.5" x2="1072.5" y1="1254.5352" y2="1254.5352"/><text fill="#000000" font-family="sans-serif" font-size="13" font-weight="bold" lengthAdjust="spacing" textLength="30" x="647.5" y="1249.793">1.29</text><text fill="#000000" font-family="sans-serif" font-size="13" lengthAdjust="spacing" textLength="143" x="681.5" y="1249.793">Start (reset timestamp)</text><path d="M245.5,1269.5352 L319.5,1269.5352 L319.5,1276.8457 L309.5,1286.8457 L245.5,1286.8457 L245.5,1269.5352 " fill="#EEEEEE" style="stroke:#000000;stroke-width:1.5;"/><rect fill="none" height="206.1738" style="stroke:#000000;stroke-width:1.5;" width="902.5" x="245.5" y="1269.5352"/><text fill="#000000" font-family="sans-serif" font-size="13" font-weight="bold" lengthAdjust="spacing" textLength="29" x="260.5" y="1283.1035">loop</text><text fill="#000000" font-family="sans-serif" font-size="11" font-weight="bold" lengthAdjust="spacing" textLength="95" x="334.5" y="1282.1699">[Animation loop]</text><polygon fill="#181818" points="1066.5,1304.1563,1076.5,1308.1563,1066.5,1312.1563,1070.5,1308.1563" style="stroke:#181818;stroke-width:1.0;"/><line style="stroke:#181818;stroke-width:1.0;" x1="640.5" x2="1072.5" y1="1308.1563" y2="1308.1563"/><text fill="#000000" font-family="sans-serif" font-size="13" font-weight="bold" lengthAdjust="spacing" textLength="30" x="647.5" y="1303.4141">1.30</text><text fill="#000000" font-family="sans-serif" font-size="13" lengthAdjust="spacing" textLength="121" x="681.5" y="1303.4141">Request timestamp</text><polygon fill="#181818" points="651.5,1333.4668,641.5,1337.4668,651.5,1341.4668,647.5,1337.4668" style="stroke:#181818;stroke-width:1.0;"/><line style="stroke:#181818;stroke-width:1.0;stroke-dasharray:2.0,2.0;" x1="645.5" x2="1077.5" y1="1337.4668" y2="1337.4668"/><text fill="#000000" font-family="sans-serif" font-size="13" font-weight="bold" lengthAdjust="spacing" textLength="30" x="657.5" y="1332.7246">1.31</text><text fill="#000000" font-family="sans-serif" font-size="13" lengthAdjust="spacing" textLength="70" x="691.5" y="1332.7246">Timestamp</text><polygon fill="#181818" points="301.5,1362.7773,291.5,1366.7773,301.5,1370.7773,297.5,1366.7773" style="stroke:#181818;stroke-width:1.0;"/><line style="stroke:#181818;stroke-width:1.0;" x1="295.5" x2="629.5" y1="1366.7773" y2="1366.7773"/><text fill="#000000" font-family="sans-serif" font-size="13" font-weight="bold" lengthAdjust="spacing" textLength="30" x="307.5" y="1362.0352">1.32</text><text fill="#000000" font-family="sans-serif" font-size="13" lengthAdjust="spacing" textLength="163" x="341.5" y="1362.0352">Call update w/ timestamp</text><line style="stroke:#181818;stroke-width:1.0;" x1="290.5" x2="332.5" y1="1396.0879" y2="1396.0879"/><line style="stroke:#181818;stroke-width:1.0;" x1="332.5" x2="332.5" y1="1396.0879" y2="1409.0879"/><line style="stroke:#181818;stroke-width:1.0;" x1="291.5" x2="332.5" y1="1409.0879" y2="1409.0879"/><polygon fill="#181818" points="301.5,1405.0879,291.5,1409.0879,301.5,1413.0879,297.5,1409.0879" style="stroke:#181818;stroke-width:1.0;"/><text fill="#000000" font-family="sans-serif" font-size="13" font-weight="bold" lengthAdjust="spacing" textLength="30" x="297.5" y="1391.3457">1.33</text><text fill="#000000" font-family="sans-serif" font-size="13" lengthAdjust="spacing" textLength="127" x="331.5" y="1391.3457">Generate next frame</text><polygon fill="#181818" points="618.5,1434.3984,628.5,1438.3984,618.5,1442.3984,622.5,1438.3984" style="stroke:#181818;stroke-width:1.0;"/><line style="stroke:#181818;stroke-width:1.0;stroke-dasharray:2.0,2.0;" x1="290.5" x2="624.5" y1="1438.3984" y2="1438.3984"/><text fill="#000000" font-family="sans-serif" font-size="13" font-weight="bold" lengthAdjust="spacing" textLength="30" x="297.5" y="1433.6563">1.34</text><text fill="#000000" font-family="sans-serif" font-size="13" lengthAdjust="spacing" textLength="282" x="331.5" y="1433.6563">Notify screen capture (once, after X seconds)</text><polygon fill="#181818" points="877.5,1463.709,887.5,1467.709,877.5,1471.709,881.5,1467.709" style="stroke:#181818;stroke-width:1.0;"/><line style="stroke:#181818;stroke-width:1.0;" x1="640.5" x2="883.5" y1="1467.709" y2="1467.709"/><text fill="#000000" font-family="sans-serif" font-size="13" font-weight="bold" lengthAdjust="spacing" textLength="30" x="647.5" y="1462.9668">1.35</text><text fill="#000000" font-family="sans-serif" font-size="13" lengthAdjust="spacing" textLength="140" x="681.5" y="1462.9668">Handle screen capture</text><!--SRC=[dLPDZzis43rJls8EmS8B9DxkDS0MS9jq4o09XDrDs-CouaWbAf4iINdZ5ldlcP55MPJj9EX9DkU3Rzwy6Idgs29iV0JNoXrwq4P7BLlzhupQcaBsqPg- -qIMw_Lr4VxMnaalEt2omVVIDzh0zKz5GOTHLzf94-4NRvy2-koCRYWrLfWVbc-p_sKhOsrzjr7InKM21zrfqvJURhKYKo6hgBSoudIRkBc1-qWHlOERcw8Gem5U_9nyu2MyirB1cuVtx-3f2cxHSEK40qBbjOjPq09D2dRZCSWHvI66WdAOAQRgGxGTnC48BXKXZAK2l6x-efk5TSouR9_3fnqeh6NVHkW31h8znYpltUQtrULZ8T0eu1mPxaHrkbnoSuU3LEJ47JT02AwVu-Zn4jwc_bFIW-EoCq8isJb9s24Ph59vb_yZkBpxS4jX0rqjrf6izuWArPL2SYPgT22b_6ZcUuo0dx7g6H5qLk4YEONiu0fAZrkDJ_JhjTBSeaLtJ_NxNCcdiUqvlyE6yDF992cXy3ptCnitSDxFD6L2jDOwUeX93Rao_f0w0cLDLu8VCFZzr0jMLh487g2-mggL7k5Y3A38_Ju83gimfv4lVtpMe27zhGF6ajt2wh_rUls5jJiJRwx0tuaznTKCYKEUUHWMSdfjGaymjkmx8eWxDynAbcoZ57Gw19wxD5CKrCyzZmNoqJ60Azat7TBksGCflZqGFoQzOI8lE6D81N9ijWY42BRtrMWVuS9Moy6MziyBvaNNke8EfHcop1WzHZDHKiwoVaTfPnfp0TAvTZVYirlqdjG_CPehxO7R8kjKJOEHuTIzgGQfdLJP7Vv3u28lB4G3bJMrRhxLi7C1cMRIEBR3UjM6B1Xisu-IFy_OhzdzUNa7s-b1o_RfSQMt6ETjdajilvpp5hp25XisHZk6wSwrarj-TPdbFTeQ_CBS6DqD8m-yB_YzcO4KY_tKx-T2UVbqwE04yMWN3gzZM17BL2MzmQX3idEN-GPBA-lejJGWoW7E-3YwB4bWkeUTbmjx8l9XxfKeddMLL39MonyAMSupZQQF2VJiR_0phLQY7dFlwUuFDkfwDscLrCQhR6LDXSz1rapqdn2GHAp2vGpViUpVIADQN6HAstlPyDd_zCtq5G00]--></g></svg>